<svg xmlns="http://www.w3.org/2000/svg" viewBox="0 0 1600 900">
	<g id="Lakeshore"><path d="M863.51,617.66c-1,3.26-1.94,5.71-2.58,8.23-1.22,4.75-2.68,9.49-3.32,14.32-.71,5.39-.58,10.88-.9,16.33q-.71,12.05-1.56,24.1c-.45,6.58-1,13.15-1.44,19.73-.63,9.5-1.17,19-1.79,28.51-.73,11.2-1.33,22.46-.41,33.62.85,10.17,2.16,20.34,6,30.06,2.71,6.93,3.65,14.38,4.06,21.86.25,4.6.92,16,1.38,20.6.12,1.23.19,2.47.3,4.07-2.88.2-5.54.56-8.21.54-6.91-.05-13.82-.25-20.73-.43-7.34-.2-14.68-.5-22-.67s-14.68-.39-22-.32a162.5,162.5,0,0,1-25.32-1.85,66.37,66.37,0,0,0-7.54-.16c-8-.25-15.94-.41-23.91-.83-7.74-.4-15.46-1.12-23.2-1.6-1.55-.1-3.13.34-4.69.32-6.71-.09-13.41-.27-20.12-.42a9.87,9.87,0,0,1-1.25-.18c-2.71-.42-3.18-.83-3.72-3.41-1.27-6-2.61-18.91-3.75-25-3-16-6.18-32.07-8.82-48.18-2.47-15.08-4.33-30.26-6.48-45.4-.93-6.53-2-13-2.84-19.58-.74-5.5-1.32-11-2-16.52q-2-16.36-4-32.71c-.31-2.58-.59-5.17-.94-8.18,1.84-.3,3.62-.72,5.43-.86,4.6-.36,9.21-.5,13.8-.91,5-.44,9.55.44,13.53,3.62,2.95,2.35,6,4.62,8.83,7.07,3.21,2.75,7.06,3,10.94,3.08,2.08.06,4.17-.25,6.26-.27,5.55,0,11.11-.06,16.66,0,5,.07,10,.35,15.07.4,3.83,0,5-.77,5.54-4.5.55-4.12.57-8.32.76-12.49.09-2.09,0-4.19.07-6.28a6.13,6.13,0,0,1,.39-1.82c.77-2.17,2.15-2.74,4.09-1.53a13.61,13.61,0,0,1,3.1,2.65,9.09,9.09,0,0,0,8.63,3.42c1.66-.22,3.34-.33,5-.44s3.46-.54,5-.14c4.69,1.22,8.65-.63,12.65-2.47,1.41-.65,2.63-1.73,4.07-2.32,3.21-1.31,6.63-1.24,9.3.87,4.53,3.58,9.31,3.61,14.56,2.45,11.44-2.54,22.88-5.15,34.64-5.75C854.3,618.08,858.57,617.89,863.51,617.66Z"/></g>
	<g id="Parkside"><path d="M651.45,628c-1.34-2.91-8.63-58.94-8.76-64.81,2.46-.44,5-1.06,7.53-1.31,9.72-.94,19.44-1.93,29.18-2.59,7.94-.54,15.92-.56,23.87-.94,9.93-.48,19.85-1.15,29.78-1.65,4-.2,8,0,12-.26,9.5-.66,19-1.52,28.47-2.26,4.17-.33,8.36-.51,12.53-.86,5.94-.5,11.87-1.14,17.81-1.63,4-.32,7.94-.49,11.91-.7,5.75-.29,11.51-.7,17.26-.77,2.77,0,5-2.55,5.62-4.74a24.84,24.84,0,0,0,.45-5.87,28.49,28.49,0,0,0-.37-3.54c10.13-1.57,20-.75,29.93-.83a4.37,4.37,0,0,1-.37,5.84c-1,1.18-2.24,2.21-3.17,3.46a8.38,8.38,0,0,0-1.84,3.47,90.67,90.67,0,0,0-.13,23.13c1.2,10.49,2.25,21,3.29,31.5.18,1.86,0,3.75,0,5.75-3.36,1.77-7.21,1.76-10.91,1.82a153.35,153.35,0,0,0-33.61,4.19c-3.26.79-6.54,1.46-9.84,2-3.5.62-6.8-.61-9.62-2.3-4.14-2.47-8.39-2.4-12.77-1.73a11.67,11.67,0,0,0-4.61,1.82,23,23,0,0,1-13.45,4.37c-4.89,0-9.23-.52-12.94-4.11a26.22,26.22,0,0,0-6.05-3.93c-4.58-2.43-8.65-.73-10,4.24a31.55,31.55,0,0,0-1,6.83c-.23,4.51-.24,9-.36,13.54a16.1,16.1,0,0,1-.17,2.2c-.39,2.35-1.61,3.2-3.93,3-4.69-.35-9.38-.75-14.08-.87-6-.15-12,0-17.94,0a16.51,16.51,0,0,0-2.18.26,7.37,7.37,0,0,1-5.81-1.6c-4-3-8.13-5.91-12.38-8.58-3.15-2-6.82-2.54-10.51-2.92-5.78-.58-11.45.36-17.14,1C655.26,628,653.37,627.93,651.45,628Z"/></g>
	<g id="OuterSunset"><path d="M623.66,422.34c5.07-.44,9.65-.87,14.23-1.21,3.76-.28,7.52-.57,11.29-.62,8-.1,15.94,0,23.92-.05,9.77,0,19.53,0,29.29-.22s19.26-.82,28.88-1.21a368.13,368.13,0,0,0,42.45-4c6.51-1,13-2,19.6-2.59,8.75-.84,17.52-1.36,26.29-2a29.79,29.79,0,0,1,3.29.14c.23,2.6.48,5,.63,7.35q.73,11.59,1.39,23.19c.63,10.76,1.29,21.51,1.86,32.27q.55,10.35.85,20.72c.22,7.75.17,15.51.49,23.25.26,6.27.9,12.53,1.35,18.8.11,1.52.14,3,.22,4.77-2.81.32-5.27.67-7.75.86-8.77.65-17.54,1.17-26.3,1.88-8.45.68-16.87,1.6-25.32,2.3-7,.58-14,1.06-21,1.49-7.84.48-15.69.85-23.53,1.28l-32,1.76c-6.81.38-13.62.66-20.42,1.18-5.11.39-10.2,1.19-15.31,1.63-5.53.48-11.08.75-16.91,1.13-.54-3.92-1-7.61-1.56-11.29q-2.1-14.45-4.24-28.89-3-20.5-6.06-41c-.92-6.31-1.92-12.62-2.64-19-.93-8.1-1.62-16.23-2.39-24.35C624,427.55,623.88,425.16,623.66,422.34Z"/>
	</g><g id="InnerSunset"><path d="M964.71,404.62l8.9,52.31c-1.24.48-2.47,1-3.72,1.43a13.83,13.83,0,0,0-7.62,6.7c-2.11,4-3.93,8.09-5.82,12.17q-1.65,3.55-3.14,7.18A51,51,0,0,0,949.13,504a11.21,11.21,0,0,1-.24,1.5,32.62,32.62,0,0,1-3.88.76c-5.84.46-11.72.67-17.38,2.42a3.58,3.58,0,0,1-3.27-.45,31.06,31.06,0,0,0-3.66-1.77,8.32,8.32,0,0,1-4.64-4.8,7.65,7.65,0,0,0-7.53-5.2c-2.71-.06-5.43.24-8.15.32-2.28.07-4.57,0-6.86.07a9.88,9.88,0,0,0-2.15.34c-3.62.91-4.23,1.45-3.45,5.19.9,4.26-.22,8.33-.33,12.49,0,1.45-.08,2.91-.08,4.36,0,.52.21,1,.18,1.55-.26,5.36-1.05,5.93-6.4,6.37-11.09.9-22.18,1.29-33.3,1.26-2.39,0-4.79.46-7.19.65-1,.08-2,0-3.31,0-.27-2.46-.6-4.61-.72-6.78-.22-4.29-.34-8.59-.46-12.88-.3-10.48-.5-21-.88-31.44-.31-8.46-.69-16.92-1.28-25.36-.63-9-1.46-17.94-2.37-26.88-.47-4.56-1.31-9.08-2-13.63-.07-.5-.11-1-.18-1.63,3.46-.25,6.78-.55,10.11-.73,5.65-.3,11.3-.46,17-.78,10.13-.59,20.3-.91,30.38-2,11-1.17,22.1-2.4,33.19-2.11,9.19.24,18.4.29,27.59,1.4,4.14.5,8.48-.74,12.74-1.19Z"/></g>
	<g id="GoldenGatePark"><path d="M957.78,345.15c4.13,16.94,5.55,33.79,6.49,50.83a8,8,0,0,1-1.75.71c-4.24.59-8.47,1.35-12.73,1.6-3.21.19-6.47-.34-9.71-.5-4.91-.24-9.83-.43-14.74-.66-1.56-.08-3.12-.35-4.69-.36a250,250,0,0,0-30.74,1.74c-9.69,1.14-19.39,1.71-29.13,2.08-8.36.31-16.71,1.11-25.07,1.59-3.56.21-7.14.06-10.7.26-9.72.54-19.46.9-29.15,1.86-10.1,1-20.13,2.71-30.2,4-7.16.9-14.34,1.8-21.54,2.31-9.09.64-18.22.7-27.31,1.36-19.7,1.43-39.44,1.06-59.16,1.28-10,.11-19.91.86-29.87,1.29-1.45.06-2.9,0-4.59,0-2-16.09-1.07-32.29-2.55-48.52a19.27,19.27,0,0,1,1.92-.24c9.77-.05,19.54-.15,29.31-.11,6.18,0,12.37.47,18.54.36,6.59-.12,13.17-.67,19.76-1,8.68-.48,17.37-.84,26-1.47,8.45-.62,16.87-1.57,25.31-2.25,5-.41,10-.5,15.06-.87,6.68-.49,13.34-1.15,20-1.64,4.91-.36,9.83-.56,14.74-.88s9.8-.75,14.71-1c5.86-.34,11.72-.58,17.58-.85,9.52-.43,19.08-.5,28.56-1.38,8.37-.77,16.74-.72,25.11-1.17,7.83-.42,15.66-1,23.48-1.65q11.11-.88,22.2-2c3.12-.3,6.22-.87,9.33-1.24,5.5-.65,11-1.19,16.52-1.88C951.71,346.31,954.57,345.7,957.78,345.15Z"/></g>
	<g id="OuterRichmond"><path d="M815.38,348.24c-6.66.75-13.2,1.57-19.75,2.19-3,.29-6.09.08-9.12.3-9.71.71-19.4,1.54-29.11,2.26-4.6.34-9.21.41-13.8.79-6.36.53-12.69,1.38-19.05,1.85-7.94.59-15.89.9-23.84,1.4s-15.87,1.17-23.82,1.61c-3.87.21-7.77.11-11.65.05-6-.09-11.95-.37-17.92-.39-6.39,0-12.78.24-19.17.26-2.38,0-4.76-.31-7.35-.49-.11-2.68-.28-5.18-.31-7.68-.05-3.68-.06-7.35,0-11,0-2.7.47-3.07,3.19-3,3.54,0,7.09.11,10.63.16a7.5,7.5,0,0,0,2.19-.09,34,34,0,0,0,5.28-1.88c2-1,1.45-3,1.69-4.74a40.64,40.64,0,0,0-.61-14.35c-.59-2.76-1.15-5.52-1.61-8.3a21.09,21.09,0,0,1,0-3.26,76.24,76.24,0,0,1,20.46-.41c2.19.27,3.94.17,5.33-2l-1.24-6.84c4.53-1.13,8.72-.65,12.87-.87,7.93-.43,15.89.2,23.82-1.1,6.7-1.09,13.54-1.36,20.27-2.28,5.9-.81,11.77-1.92,17.61-3.09,2.59-.52,3.29-2,2.91-4.66-.23-1.63-.38-3.28-.59-5.09,3.44-.56,6.62-1.07,9.79-1.61,4.53-.78,9.06-1.56,13.58-2.39a15.27,15.27,0,0,0,2.7-.81,3.74,3.74,0,0,0,2.59-3.54c.42-5.53.91-11,.16-16.59-.69-5.07-.37-5.27,4.69-5.61.73,0,1.46-.11,2.19-.22,3.19-.5,6.13-.7,9.33.89a56.51,56.51,0,0,0,17.94,5.5c2.47.32,5,.31,7.84.47.18,2.18.45,4.24.5,6.29.13,5.46.15,10.91.24,16.37.13,8.23.32,16.46.38,24.7,0,3.14-.29,6.27-.38,9.41a261.57,261.57,0,0,0,1.12,27.33C815.6,341.19,815.38,344.74,815.38,348.24Z"/></g>
	<g id="InnerRichmond"><path d="M824.5,348c-.65-7.69-1.46-15.26-1.87-22.86-.36-6.7-.31-13.43-.35-20.15-.06-7.76.27-15.54-.1-23.28-.43-8.87-1.46-17.71-2.22-26.57,0-.41,0-.83,0-1.41a12,12,0,0,1,2.07-.47c4.81-.25,9.63-.4,14.44-.69,4.59-.28,9.17-.79,13.77-1.06,11.51-.67,23-.05,34.55-.11,2.2,0,4.4,0,6.6-.1,2.46-.09,3.82-1.82,4.56-3.79a21.87,21.87,0,0,0,.93-5.53c.22-2.28.21-2.63,2.47-2.83,4-.35,8.11-.38,12.3-.55a115.36,115.36,0,0,1,.56,18.23c-.1,2.2-.21,4.42-.11,6.61.19,4.09,2.33,6.13,6.43,6.15,1.88,0,3.76-.32,5.65-.42,4.11-.22,5.9,1.19,6.34,5.23.41,3.74.56,7.5.89,11.25a12.28,12.28,0,0,0,.63,3.06c1,2.85,3,4.62,6.14,4.44,4.18-.24,8.36-.66,12.53-1,3-.27,6-.91,9.05-.84a116.24,116.24,0,0,0,25.17-2.58c4.2-.82,8.48-1.23,12.72-1.83a1.56,1.56,0,0,1,2,1.45c.13.82.34,1.63.47,2.46,1.18,7.76,2.39,15.52,3.49,23.29.66,4.66,1.25,9.34,1.63,14,.21,2.53,0,2.66-2.49,3-4.24.65-8.51,1.12-12.77,1.72-8.39,1.2-16.78,2.48-25.18,3.63-2.69.37-5.44.31-8.14.67-4.25.57-8.46,1.43-12.71,2-5.39.73-10.8,1.33-16.21,1.92-8.43.93-16.84,2-25.29,2.65-11.68.94-23.37,1.61-35.07,2.33-6,.37-11.94.57-17.9.87-7.85.4-15.69.82-23.54,1.21A7.45,7.45,0,0,1,824.5,348Z"/></g>
	<g id="Excelsior"><path d="M1127.29,775.3a27.51,27.51,0,0,1-3.93-1.22c-2.81-1.4-5.55-3-8.33-4.43-8-4.28-15.15-1.86-20,5.22-2.64,3.9-4.9,8-7.34,12.08q-.33.54-.68,1.06c-1.17,1.71-1.4,1.77-3.3.74-2.75-1.5-5.41-3.21-8.26-4.5-7.23-3.3-14.55-6.41-21.83-9.6-.95-.42-1.89-.85-3.14-1.42.83-1.71,1.59-3.29,2.37-4.86,3.29-6.56,6.42-13.21,9.94-19.64,4.72-8.64,9.54-17.23,14.69-25.62,9.2-15,18.61-29.91,28.07-44.76,2.58-4.05,5.68-7.78,8.53-11.67a7.94,7.94,0,0,1,7.87-3.44c3.61.4,7.28.28,10.9.62,8.92.82,17.83.14,26.74,0,5.55-.11,11.1,0,16.65-.13,3.35-.08,6.69-.38,10-.64a45.74,45.74,0,0,0,17-4.28c6.37-3.16,12.46-6.87,18.66-10.36,1.19-.67,2.29-1.49,3.5-2.11a75.12,75.12,0,0,0,14.1-8.79,39.58,39.58,0,0,1,3.36-2.25,15.91,15.91,0,0,1,1.46,2c1,2,2,3.94,2.84,6,3.43,7.87,7.19,15.63,10.15,23.67,4.12,11.18,7.64,22.58,11.41,33.89,1,3.08,2,6.17,3.11,9.59a30.32,30.32,0,0,1-2.85,1.25c-12.46,4-24.9,8-37.39,11.92-6.89,2.14-13.92,3.85-20.8,6-6.69,2.11-13.27,4.53-19.89,6.85-11,3.84-22,7.65-32.89,11.57a6.71,6.71,0,0,1-6.23-.61,94.55,94.55,0,0,0-10.91-5.59c-6.45-2.76-11.64.4-12.21,7.42-.53,6.57-.74,13.16-1.09,19.74C1127.51,770.84,1127.42,772.72,1127.29,775.3Z"/></g>
	<g id="OuterMission"><path d="M940.35,839a14.12,14.12,0,0,1,1.05-2c4.4-5.77,9.37-17.84,14.65-22.82,6-5.69,11.77-11.67,17.64-17.53q2.44-2.44,4.87-4.89c5-5.07,10.36-9.85,14.92-15.29,4.76-5.68,9.28-11.69,12.31-18.54a122.74,122.74,0,0,0,4.72-13c1-3.29.58-6.73-3.76-8.49-7.85-3.19-15.68-6.43-23.51-9.64l-3.17-1.3c-.89-8-.68-15.83-.56-23.68.09-6.38.43-12.75.6-19.13.1-3.66-.6-7.3-3.12-10-3.35-3.55-4.48-7.67-4.61-12.29a47.07,47.07,0,0,1-.16-6.56c.71-6.23,1.64-6.16,7.89-6.17,3.65,0,7.29.54,10.93-.18a13.87,13.87,0,0,0,2.48-.34c4.54-1.84,8.64-.52,12.62,1.64a12.61,12.61,0,0,0,7.19,1.86c1.82-.15,3.25-.73,4-2.48a2.39,2.39,0,0,1,.16-.27c2.14-3.44,2.28-3.42,6.36-2.82a90.41,90.41,0,0,0,10.29,1.08c5,.15,6.55-1.15,8-5.77.28-.86.61-1.71,1-2.88l4.61,2.56c1.83,1,3.62,2.12,5.51,3a31.89,31.89,0,0,0,8.28,2.71c4.4.79,8.65,2.44,13,3.76.36.11.64.5,1.15.93-1.1,1-2.16,2-3.12,3a8.38,8.38,0,0,0-1.75,9.31c1.24,3.19,4,4.59,7.19,4.77a45.3,45.3,0,0,0,17.09-1.86c3.13-1,6.34-2.2,10-1.73a13,13,0,0,1-.87,2.14c-6.27,9.68-12.35,19.48-18.91,29-7.53,10.89-13.88,22.48-20.72,33.77-3.15,5.2-5.94,10.61-8.82,16-4.26,7.93-8.11,16.1-12.75,23.8a93.05,93.05,0,0,1-18.29,21.88c-4.33,3.81-8.26,8.09-12.71,11.74a128.51,128.51,0,0,1-12.62,8.79c-3.44,2.19-7,6.42-10.69,8.26-4.2,2.13-8.56,8.49-12.76,10.61s-8.55,4.42-12.7,6.84c-2.84,1.66-5.94,2-9,2.28-4.18.31-8.39.21-12.59.27A7.37,7.37,0,0,1,940.35,839Z"/></g>
	<g id="OceanView"><path d="M865.62,668.6a35.27,35.27,0,0,1,12.18,13.65,80.08,80.08,0,0,0,3.94,7.48,31.16,31.16,0,0,0,8.82,8.84c11.19,7.62,23.45,12.94,36.27,17,10.56,3.38,21.2,6.51,31.73,10,5.26,1.72,10.38,3.88,15.55,5.88q12.44,4.82,24.85,9.7c.78.3,1.54.65,2.29,1a2.16,2.16,0,0,1,1.1,3.14c-1.82,4.23-3.17,8.74-5.55,12.62a102.16,102.16,0,0,1-16.56,20.84c-6.54,6.21-12.78,12.74-19.16,19.12-4.67,4.67-9.39,9.29-14,14-6,6.13-12.2,19-16.33,26.64a2.91,2.91,0,0,1-3,1.74c-4.6-.15-9.2-.19-13.8-.16-7.66,0-15.32.25-23,.24-5.56,0-11.11-.24-16.67-.4-2.11-.06-2.62-.49-2.81-2.54-.61-6.67-1.09-20.19-1.74-26.85a113.46,113.46,0,0,0-4.9-23.29,87.83,87.83,0,0,1-3.14-14.06,125,125,0,0,1-1.38-24.12c.49-9.51,1.1-19,1.64-28.52.31-5.54.5-11.09.89-16.62.44-6.25,1.07-12.49,1.57-18.73.29-3.64.47-7.29.72-10.94C865.26,672.56,865.43,670.84,865.62,668.6Z"/></g>
	<g id="WTwinPeaks"><path d="M877.83,534.77c3.63-.33,7.14-.71,10.67-1,3.14-.22,3.93-.6,4.67-3.58a49.24,49.24,0,0,0,1.16-7.41c.3-3.33.38-6.69.58-10,.12-2.07.28-4.13.46-6.65l11.71-.7c1.2-.07,1.65.77,2,1.65a11.11,11.11,0,0,0,7.08,6.24,4.45,4.45,0,0,1,3.31,4c.62,4.53,3,8.21,6.11,11.48,1.5,1.6,3.09,3.12,4.65,4.67,1.73,1.72,2.71,3.56,2,6.19-.62,2.39.08,4.81,1,7.06.8,2,2.7,2.93,4.61,3.5a53.31,53.31,0,0,0,6.45,1.3,70.25,70.25,0,0,1,22.57,7.4,18,18,0,0,0,4.29,1.91c4.74,1.15,7.5,4.74,10.52,8.09,2.59,2.87,5.24,5.71,8,8.42a12.09,12.09,0,0,0,8,3.2c5.07.27,8.4,2.6,10.31,7.29a31.69,31.69,0,0,0,15.53,16.65c2.37,1.22,4.7,2.68,5.81,5.46a3.11,3.11,0,0,1-.69,3.89,33.38,33.38,0,0,0-5.43,6.84c-1.2,2.22-1.59,4.92-2.13,7.44a2.75,2.75,0,0,0,.78,2.19c3.29,2.95,7.05,4.42,11.52,3.11,1.18-.35,2.36-.73,3.63-1.13a6.4,6.4,0,0,1,0,5,3.05,3.05,0,0,1-3.41,2.16q-4.85-.41-9.69-.93a16.76,16.76,0,0,1-3.71-.64c-2.81-1-4.62.28-6.14,2.43-.24.34-.45.71-.67,1.06-1.74,2.7-2.68,3-5.66,1.67-1.15-.5-2.27-1.08-3.41-1.6-4.21-1.91-8.46-2.76-13.13-1.48a29.45,29.45,0,0,1-12.44.83,20.92,20.92,0,0,0-6.53.34c-4.07.68-6.4,2.84-6.57,6.83-.25,5.75,0,11.52.18,17.28a13.36,13.36,0,0,0,4,8.66,9.82,9.82,0,0,1,2.66,8.06c-1.16,12.25-.48,24.53-.63,36.8,0,1,0,2.06,0,3.39a14.48,14.48,0,0,1-2.64-.61c-9.28-4.26-19.17-6.63-28.91-9.46-10.36-3-20.61-6.3-30.29-11.2-3.93-2-7.78-4.06-11.55-6.33-5.18-3.13-8.54-7.7-10.93-13a50.68,50.68,0,0,0-19.26-22.64,3.82,3.82,0,0,1-1.91-3.59c-.34-11.48,2-22.47,5.71-33.24,1.17-3.45,2.56-6.83,3.78-10.27a5.64,5.64,0,0,0,.21-2.17c-.26-4.28-.46-8.57-.89-12.84-.74-7.39-1.69-14.76-2.45-22.15-.46-4.48-.86-9-1-13.47-.1-3.13.29-6.28.43-9.42A5.27,5.27,0,0,1,874,548c.84-.77,1.45-1.79,2.26-2.6,2.38-2.35,2.54-5.12,1.77-8.14A15.75,15.75,0,0,1,877.83,534.77Z"/></g>
	<g id="Bayview"><path d="M1538.66,687.09c-1-1.85-4.57-3.18-6.93-2.46a37.9,37.9,0,0,0-3.78,1.51c-3.56,1.54-7.05,3.24-10.69,4.58a12.46,12.46,0,0,1-5.23.59,5.77,5.77,0,0,1-4.8-8.05,8,8,0,0,1,5.29-5c2.29-.73,4.67-1.18,7-1.91,1.83-.58,5.76-1.09,4.82-3.37-.29-.71-1.29-.7-1.8-.62a20.11,20.11,0,0,0-4.85,1c-5.3,2.2-10.48-.08-12.37-4.69a7.65,7.65,0,0,0-2.88-3.58,22.79,22.79,0,0,0-11.49-2.68c-2.71,0-5.43.25-8.15.39a26.4,26.4,0,0,0-4.7.32c-3.5.84-6.58,0-9.63-1.69-5.66-3.14-9.74-10.13-14.54-14.33-2.7-2.38-4.31-2.43-5.74,1.61a14.23,14.23,0,0,1-1.9,3.94,12.65,12.65,0,0,1-3.77,3.59c-6.58,3.48-13.05,1.89-17.71-4.35a7.92,7.92,0,0,1-1.51-5.92c.37-3.39,1.29-4.56,3.37-7.13.64-.78,3.12-2.94,2.69-4.29s-3.1-1.51-4.16-1.85c-2.63-1.61-4.31-3.25-3.69-6.32.57-2.8,1.06-3.63,3.07-6,.7-.6,2.71-2.55,2.66-3.58-.11-2.22-3.35-2.74-4.74-4.27a4.91,4.91,0,0,1-.9-5.81c1-1.92,1.79-1.92,4-2.12,4-.37,7.35,2.08,10.39,4.13,5.6,4.37,8,3.56,15,3.76,1.33,0,3-.51,3.13-1.13.29-1.36-3.52-1.77-4.61-2-2.15-.43-3.83-.49-5.63-1.25-2.2-.77-6.2-3.42-7.81-6.81s-.27-6,3.5-6.67c.51-.1,1-.1,1.56-.16,2.29-.28,4.57-.61,6.86-.83,5.94-.59,10.57-.42,16.51-1,1-.09,4.33,2.65,4.92,1.07s-1.88-5.73-2.62-6.56c-1.6-1.8-3-3.14-4.9-5.2-5.49-6.09-9.52-12.26-14.7-18.6-1-1.18-1.83-2.8-3-3-2.12-.37-3.42,1.75-5,2.22s-3.26.6-4.46-.68c-2.05-2.22-4.41-4.37-5.09-7.43s-2.57-4-5.32-4.12c-.73,0-1.47-.16-2.2-.14-6,.17-11.94.46-17.92.52-8.42.09-16.61,2-24.93,3-5.92.67-11.81,1.82-17.82,1.52-2.83-.14-5.68.05-8.51,0-8.12-.27-15.48-2.39-21.31-8.55a14.22,14.22,0,0,1-3.51-5.84,6.79,6.79,0,0,1,.09-4.75l-61-.59-1,3.24a144.24,144.24,0,0,1-13,31,81,81,0,0,0-5.66,11.57,74.24,74.24,0,0,0-4.48,31.83,23.11,23.11,0,0,0,2.67,9.94c2.41,4.29,5.14,8.44,7.17,12.91q6.88,15.15,13.16,30.57c2.4,5.92,4.24,12.07,6.22,18.15,2.07,6.37,4,12.79,6,19.18,1.6,5.09,3.49,10.1,4.82,15.26,3.46,13.49,7,27,9.88,40.59a60.18,60.18,0,0,0,6.38,17.52c3.55,6.28,6,13.2,9.38,19.55,4.11,7.63,7,18,9.28,26.24.27,1,1.23,6.59,2.14,7,3.13,1.54,6.88-4.31,8.7-7.34.27-.45.4-1,.65-1.43,2.47-4.43,7.11-8.79,11.39-7.18,1.43.54,2.71,3.85,4,4.76,2.69,1.94,5.33,8.52,7.85,10.4,3.4-2.46,6.34-11.67,9.51-13.68,5.1-3.23,7.83-1.07,11.21,4.39,2,3.24,4.94,9.63,9,9.28,1.36-.12,2.74.07,4.1,0a31.67,31.67,0,0,1,15.84,3.22,14.17,14.17,0,0,0,6.86,1.5,11.2,11.2,0,0,0-.81-1.17c-1.79-1.91-3.73-8.26-5.34-10.31a16.41,16.41,0,0,1-2.11-6.69c0-4.2.62-8.32,3.39-11.85a99.5,99.5,0,0,0,8.13-11.18c3.34-5.75,7-11.15,11.89-15.69,2.45-2.28,2.34-4.08-.48-5.78-8.68-5.27-17.13-10.88-26.49-15-5.72-2.54-10.5-6.68-11.59-13.47a17.54,17.54,0,0,1,.38-5.87c.33-1.73.15-2.74-1.52-3.82-5.89-3.83-11.7-7.79-17.35-12a17.94,17.94,0,0,1-4.38-5.23,6.13,6.13,0,0,1,.59-7.35c2.7-3.3,4.8-3.89,8.22-2.71a55.63,55.63,0,0,1,13.84,7.36c4.46,3.14,8.83,6.39,13.25,9.58,1.52,1.1,3.05,2.21,5.13,2.16a12.69,12.69,0,0,0,2.42-6.39c.58-3.51,2-6.69,5-8.74a11.18,11.18,0,0,1,12.2-.39c9.89,5.56,15.43,14.13,16.67,25.49,1,9.37,5,11.15,11.06,12.3s11.63,4.91,16.67,8.47c1.26.89,3.14,1,4.77,1.22s3.32,0,5,.12c3.43.27,6.6,1.22,9,3.84a60.51,60.51,0,0,1,4.34,4.91c3.09,4.15,5.83,4.42,9.59.78,1.36-1.31,2.74-2.6,4.1-3.91,1.78-1.72,2-2.79.71-5-.73-1.27-1.75-2.37-2.47-3.64-1.06-1.87-1.43-3.47-.3-5.17a6.5,6.5,0,0,1,2.62-2.1,7,7,0,0,1,7.45-.12c2.75,1.61,7.92,6.13,9.59,4.2.58-.67-.45-1.66-.71-1.87-4.6-3.64-9.14-7-15.07-8.49a10,10,0,0,1-6.88-5.52,4,4,0,0,1-.45-2.35,14.54,14.54,0,0,1,2.92-6.88c.62-.93,2.55-2.82,2.66-3.8.13-1.2-4.25-2.68-6.46-4a30.77,30.77,0,0,1-8.12-7.06c-1.16-1.47-2.35-3-2-5.07a7.79,7.79,0,0,1,7.2-6.76,8.37,8.37,0,0,1,6.25,1.48c3.62,2.85,6.13,5.42,9.73,8.3.86.69,3.8,3.22,4.82,2.6,4.42-2.69,1.14-6.73,4.13-8.64a2.67,2.67,0,0,1,.27-.17c3.59-1.72,7.21-3.37,10.75-5.19a33.1,33.1,0,0,0,5.55-3.46A5.76,5.76,0,0,0,1538.66,687.09Z"/></g><g id="Potrero"><path d="M1423.49,502.51c-.64-2.45-3.7-1.81-5.64-1.77-6.3.13-3.31.16-9.62.23-.36,0-9.33,1.13-13.33-1-1.94-1-3.44-2.74-5.13-4.15s-3-2.7-3.34-4.8c-.9-5.33,4.28-12.36,9.65-13.08a7.19,7.19,0,0,1,1.57,0,42.34,42.34,0,0,1,5.47,1.09c.89.22,3.52.53,4-.6.83-2-3.13-3.52-4.34-5.21-2.78-3.88-3.44-8.77-3.15-13.64.18-3,.11-6.09.25-9.13a9.48,9.48,0,0,0-2.32-7.28c-2-2.16-3.72-4.64-6-6.41a66.54,66.54,0,0,0-9.82-6.13c-3-1.6-6.4-2.58-9.5-4.08-3.87-1.86-14.6-5-13.84-9.28.48-2.68,1.11-5.34,1.42-8,.38-3.27.49-6.58.74-10.11-4.39.22-8.56.38-12.71.65-7.62.51-15.23,1.17-22.85,1.62-9.2.55-18.4.94-27.6,1.43q-11.61.62-23.23,1.31c-3.35.2-6.69.53-10,.73a3,3,0,0,0-2.95,2.32c-1.66,4.93-3.66,9.76-5,14.77-1.72,6.57-3.19,13.24-4.27,20s.21,14.26,9.45,17.66c.39.14.78.3,1.16.47a12.31,12.31,0,0,1,6.91,7,58.57,58.57,0,0,1,2.57,9.68c.73,4.22,1,8.52,1.55,12.77a31.86,31.86,0,0,1,.34,8.71c-.56,4.14-.93,8.31-1.41,12.47-.26,2.29-.57,4.59-.9,7.16a5.71,5.71,0,0,0-.85,1.76c-.66,2.08-1.89,7.82-2.52,9.91l61.26.59c.83-1.07,2.74-5.48,4.5-5.86a125.52,125.52,0,0,1,13.25-2.51,58.27,58.27,0,0,1,11.87-.07c5,.48,9.93,1.54,14.89,2.36a14.12,14.12,0,0,0,9.46-1.22,12.47,12.47,0,0,1,6-1.54c7.32.19,13.11-.49,19.34-4.61,1.53-1,4.39-1.27,6.33-1.44,3.2-.29,10.05.71,10.69-.91S1424.41,506,1423.49,502.51Z"/></g>

	<g id="SOMA"><path d="M1345.62,221.24c2,1.59,3.7,2.83,5.26,4.22a8.76,8.76,0,0,1,3.06,7.89,54.89,54.89,0,0,0-.55,6.24c0,4.89,1.6,7.5,6.62,8.27,1.65.25,3.29.62,4.93.93,2.51.47,3.56,1.33,4.82,4-.74,1.75-2.42,2.09-4,2.45-2,.46-4.12.78-6.15,1.28-3.92,1-6,3.73-6.72,7.49a19.74,19.74,0,0,0-.23,5.64c.68,6.87,1.58,13.72,2.26,20.59.4,4.06.52,8.15.8,12.22.17,2.51-1.51,3.54-3.43,4.29a23,23,0,0,0-8,5.41A19,19,0,0,0,1339,323c-.43,2.71,0,3.72,2.62,4.52a26.7,26.7,0,0,0,6.79.88c4.38.13,5.62,1.15,6.22,5.63l.42,3.1c.48,3.62,2.79,4.19,6.5,4.19,3.34,0,6.67-.52,10-.76s6.68-.42,10-.63c1.25-.08,2.73-.3,4-.43,4.29-.44,8.31,4.32,9.4,8.47.5,1.92-.2,2.8-2.21,2.66-3.43-.23-6.42-.29-9.4-1.81-6.64-3.38-13.1-2.8-19.52.58-3.24,1.7-4.77,2.76-4.23,6.53.76,5.26,2.76,10.09,4.8,14.91,1.3,3.08,3,6,4.28,9.1a14.87,14.87,0,0,1,1,4.85c.19,3.63-1.7,5.88-5.44,6.28-5.2.56-10.42.89-15.64,1.27q-11.74.86-23.49,1.66c-1.57.11-3.15.1-4.72.2q-8.62.54-17.23,1.12l-21.94,1.46c-5.12.34-10.23.7-15.35,1-1,.07-2.05,0-2.71,0-1.13-3-2-5.72-3.09-8.27A21.32,21.32,0,0,0,1246,377.1c-7.44-2.14-14.84-4.45-22.37-6.24a158.06,158.06,0,0,0-21.86-4.08,118.46,118.46,0,0,0-24.82,0c-5.4.64-10.81,1.34-16.3.85-2.23-.2-3.79-.93-4.86-2.83-.21-.36-.48-.69-.69-1.05-2.42-4.11-2.37-4.39,1-7.72l90.93-88.7c.38-.37.74-.74,1.13-1.1,2.17-2,2.27-1.95,4.7-.12,7.56,5.7,14.33,12.29,21.2,18.77,2.74,2.59,6.12,2.35,7.84-1,2.51-4.9,6.64-8.31,10.31-12.15,2.39-2.5,4.95-4.85,7.47-7.23q15.34-14.46,30.7-28.9c4-3.73,7.87-7.51,11.81-11.26C1343.24,223.32,1344.34,222.38,1345.62,221.24Z"/></g>

	<g id="Mission"><path d="M1146.75,365.6c1.08,1.7,2.27,3.3,3.15,5a7.05,7.05,0,0,0,5.17,3.7c6.31,1.47,12.65,1.19,19,.39,5-.62,9.93-1.42,15-.57,2.56.43,5.24.17,7.86.25,16,.53,30.78,5.62,45.4,11.44a40.37,40.37,0,0,1,7.54,4.48,7.38,7.38,0,0,1,3.25,6.43,48.18,48.18,0,0,1-3,17.23,122.18,122.18,0,0,0-6.88,30.24A23.35,23.35,0,0,0,1249,462a15.94,15.94,0,0,0,4.56,3.25c5.49,2.94,9,7.22,10.34,13.43a76.74,76.74,0,0,1,.27,28.63c-.52,3.09-1,6.18-1.48,9.29-.26,1.78-1.08,2.6-3,3a18.93,18.93,0,0,0-10.27,5.76,13.3,13.3,0,0,1-9.24,4.75c-7.52.56-15.06,1.32-22.57,1.2-5.45-.09-10.86.29-16.29.41-9.84.22-19.68.85-29.52,1.19-9.41.32-18.83.47-28.25.68-2.14,0-2.49-.24-2.63-2.51-.32-4.91-.63-9.83-.8-14.74-.28-8.07-.2-16.16-.71-24.22-.79-12.53-1.91-25-2.94-37.55-.82-9.9-1.73-19.79-2.55-29.69-1-11.79-2.5-23.54-2-35.41.13-2.93.28-5.87.57-8.79a4.41,4.41,0,0,1,1-2.53c4.05-4.1,8.2-8.11,12.33-12.13A3.48,3.48,0,0,1,1146.75,365.6Z"/></g>

	<g id="NoeValley"><path d="M1129.82,477.79c.67,16.87,1.26,33.45,2,50s2.86,32.86,5,49.51c-2.18.33-4.11.78-6,.87-5.65.27-11.3.33-17,.58-7.85.35-15.69.8-23.53,1.19-3.77.19-7.54.45-11.31.41a3.59,3.59,0,0,1-2.79-1.63c-2-5.24-6.49-7.16-11.19-8.75a41.62,41.62,0,0,1-9.71-4.34c-.17-.11-.39-.17-.56-.28-6.35-4-6.89-5.24-5.43-12.51.12-.62.29-1.22.42-1.84a5.42,5.42,0,0,0-2.4-6c-3.44-2.35-7.13-3.43-11.3-1.91-2.44.89-5,1.54-7.91,2.44a30.92,30.92,0,0,1,0-4.52c1.06-6.61,2.26-13.2,3.33-19.81.38-2.37.6-4.77.81-7.17a51.64,51.64,0,0,1,4.46-16c2.31-5.39,4.5-10.82,6.72-16.25a3.77,3.77,0,0,0,.4-1.51c-.12-2.59,1.4-3.45,3.64-3.79,1.65-.25,3.27-.75,4.92-1.06,2.42-.46,2.75,0,3.19,2.4a14.38,14.38,0,0,0,1.77,4.59,5,5,0,0,0,4.54,2.31c4,.06,7.68-1.06,11.33-2.32a92.14,92.14,0,0,1,20.26-4c5.09-.55,10.24-.61,15.36-.81s10.05-.37,15.08-.42A57.24,57.24,0,0,1,1129.82,477.79Z"/></g>

	<g id="Castro"><path d="M1067.6,382.16c18.26-1.65,36.43-2.25,54.82-2.21.06,1.35.16,2.27.14,3.19-.17,10.6,1,21.1,2.22,31.61.39,3.33.41,6.69.7,10,.64,7.4,1.38,14.78,2,22.18s1.18,14.56,1.76,21.84a8.57,8.57,0,0,1-.16,1.42,22.08,22.08,0,0,1-2.44.29c-3.68,0-7.35,0-11,0-12.15.21-24.3.65-36.25,3a121.61,121.61,0,0,0-12.65,3.72c-2.33.74-3.84-.12-4.14-2.59a24,24,0,0,0-.47-3.71c-.74-2.59-1.37-3.1-4-3.17a26.28,26.28,0,0,0-5.64.33,88,88,0,0,0-10,2.46,5.36,5.36,0,0,1-4.46-.43c-6.6-3.34-11.65-8.46-16.34-14-2.17-2.56-4.2-5.24-6.43-7.74a4.23,4.23,0,0,1-.93-4.79,113.7,113.7,0,0,1,8-18.74c1.48-2.64,2.66-5.45,4.08-8.12a17.07,17.07,0,0,1,10.5-8.38c4.38-1.39,8.17-3.77,10.64-7.84a7.17,7.17,0,0,0,.87-1.64c1.26-4.42,4.56-6.75,8.42-8.74a77.87,77.87,0,0,0,8.46-5.33A14.32,14.32,0,0,0,1067.6,382.16Z"/></g>

	<g id="HaightAshbury"><path d="M1056.08,330.48c-.14,3.09-.09,5.49-.38,7.85a40.37,40.37,0,0,0,3.44,22.07c2,4.48,1.87,9,.68,13.53-2.31,8.69-1.32,6.72-8.79,11.09-2.26,1.32-4.63,2.45-6.76,4a10.84,10.84,0,0,0-2.75,3.33c-1.24,2.06-2.2,4.3-3.44,6.36a9.32,9.32,0,0,1-5.57,4.33c-9,2.51-14.25,8.87-18.09,17q-4.81,10.24-9,20.72c-.84,2.11-1.44,4.31-2.27,6.42-.75,1.92-2,3.6-4.11,4-5.72,1.13-11.46,2.11-17.49,3.2-.39-1.55-.77-2.73-1-3.93-1.49-8.34-3.15-16.66-4.37-25-1.45-9.92-2.64-19.89-3.73-29.86-1-9.35-1.5-18.77-2.74-28.09-.91-6.83-2.67-13.55-4-20.32-.14-.7-.31-1.39-.53-2.33C995.37,339.88,1025.83,337.62,1056.08,330.48Z"/></g>

	<g id="PacificHeights"><path d="M1145.46,218.71c-3.33.42-6.53.8-9.71,1.25-8.91,1.26-17.82,2.57-26.73,3.83-6,.85-12,1.62-18.05,2.46-9,1.26-18,2.56-27,3.83-10.16,1.42-20.35,2.64-30.47,4.28-7.12,1.16-14.14,2.88-21.2,4.34-.3.06-.61.06-1.29.13-2.18-7.71-4-15.47-3.79-23.47l3.88-2.52a2.72,2.72,0,0,0,1.33-3.18c-.73-3.69-1.3-7.42-1.86-11.14-.23-1.51-.28-3-.43-4.83,3.25-.56,6.1-1.16,9-1.52,2.59-.33,5.27-.15,7.81-.67a37.92,37.92,0,0,0,8.63-2.71,22.13,22.13,0,0,1,18.26-.94,12.47,12.47,0,0,0,8.24.14c6.24-1.73,12.56-3.19,18.9-4.53,11.06-2.34,22.12-4.63,33.23-6.69,6.57-1.22,13.24-2,19.87-2.87a33,33,0,0,1,4.09,0c.41,1.6,1,3.26,1.25,5q2.88,17.8,5.65,35.62C1145.22,215.77,1145.3,217.11,1145.46,218.71Z"/></g>

	<g id="WesternAddition"><path d="M1147.06,227.43c4.46,12.43,5.9,24.87,7.6,37.54-2.29.85-4.34,1.57-6.36,2.37-2.52,1-5,2.07-7.53,3.11a4.53,4.53,0,0,0-3.08,5.2c1.21,10.4,2.34,20.81,3.55,31.21.81,7,1.63,13.92,2.59,20.87,1,7.24,2,14.49,4.51,21.39-.08.23-.09.48-.22.62-6.78,7.17-13.55,14.35-20.41,21.44a7,7,0,0,1-3,1.37,9.54,9.54,0,0,1-2.5.22c-10,.22-19.93.5-29.89.61a115.57,115.57,0,0,0-13.77.85,69.52,69.52,0,0,1-8.86.07c0-1.57-.11-2.82,0-4a20,20,0,0,0-2.08-10.36,37.06,37.06,0,0,1-3.23-18.9c.31-3.44.54-6.89.61-10.35a23.13,23.13,0,0,0-.55-5.61,5.65,5.65,0,0,0-6.77-4c-2.73.68-5.4,1.55-8.11,2.33-.91.26-1.81.53-2.74.71-8.43,1.62-16.83,3.51-25.32,4.74-6.07.88-5.93,1.72-6.9-5.39-.95-6.95-1.77-13.92-2.59-20.88-.57-4.88-.95-9.78-1.57-14.65q-1.66-12.93-3.55-25.82a9.33,9.33,0,0,1,.79-5.16c1.32-3.18,2.63-6.38,3.67-9.66a2.75,2.75,0,0,1,2.53-2.24c10.32-1.74,20.63-3.39,31.06-4.41,8.74-.85,17.41-2.38,26.12-3.52,5.7-.75,11.44-1.3,17.14-2,3.21-.41,6.4-1,9.61-1.5q13.52-1.92,27-3.78,9.17-1.25,18.36-2.39A30.64,30.64,0,0,1,1147.06,227.43Z"/></g>

	<g id="Downtown"><path d="M1159.3,237.64c6.06-1.1,11.81-2.16,17.56-3.18,1.75-.31,3.55-.4,5.27-.82,5.15-1.25,10.41-1,15.63-1.31a121.12,121.12,0,0,0,12.15-1.39c8.88-1.46,17.72-3.11,26.58-4.63a19.72,19.72,0,0,1,3.07,0c.23,1.28.54,2.57.69,3.89,1.06,8.94,2,17.88,3.18,26.81a4.79,4.79,0,0,1-1.81,4.88q-7.31,6.2-14.29,12.79-15,14.12-29.86,28.42c-3.63,3.49-7,7.21-10.68,10.69-5.84,5.56-11.8,11-17.69,16.49-3.52,3.3-7,6.64-10.51,10-.81.77-1.68,1.49-3,2.67-.82-3.9-1.73-7.19-2.18-10.54q-2.21-16.63-4.13-33.31c-.82-7.06-1.48-14.14-2.16-21.22-.25-2.65.07-3.21,2.65-4.23,2.91-1.15,5.91-2.09,8.86-3.17a13.19,13.19,0,0,0,2.82-1.34,4.73,4.73,0,0,0,2-5.19c-1.31-7.74-2.52-15.49-3.76-23.24C1159.58,239.82,1159.49,239,1159.3,237.64Z"/></g>

	<g id="FinancialDistrict"><path d="M1246.61,224.95c1.57-.41,2.94-.8,4.34-1.11s2.68-.48,4-.73c4.85-.91,6.33-3,5.81-8-.48-4.69-.73-9.4-1.29-14.08-.7-5.81-1.62-11.6-2.42-17.4-.73-5.26-1.43-10.53-2.17-16a7.88,7.88,0,0,1,1.73-.62c2.91-.32,5.84-.51,8.75-.85,7.17-.82,14.34-1.63,21.49-2.56,2.9-.37,5.77-1,8.65-1.55a4.66,4.66,0,0,1,4,1.31c7.58,6.27,14.28,13.36,18.93,22.07,5.38,10.07,12.3,19,19.54,27.72.59.71,1.14,1.44,1.83,2.31-4,3.83-7.78,7.55-11.64,11.22q-7.65,7.26-15.36,14.45c-4.29,4-8.68,7.9-12.91,12-3.1,3-6,6.2-9,9.28-4.39,4.5-8.81,9-13.5,13.73-1.95-1.73-3.92-3.54-6-5.27-5.9-5-11.74-10.16-18.62-13.87a3.1,3.1,0,0,1-1.71-2.72c-.76-6-1.54-12-2.45-18C1248.17,232.63,1247.38,229.05,1246.61,224.95Z"/></g>

	<g id="Chinatown"><path d="M1233.29,216.89l-6.43-44.05c6.39-1.34,14.92-3,21.59-3.74.44,2.46.66,6.21.92,8.45,1.27,11.13,3.58,22.21,4.77,33.35.3,2.85-.88,3-3.74,3.53-4,.78-8,1.56-12,2.28C1237.45,216.87,1234.61,216.82,1233.29,216.89Z"/></g>

	<g id="NobHill"><path d="M1225.91,218.73c-3.1.59-6.05,1.18-9,1.7-4.42.78-8.83,1.63-13.28,2.21-5.39.71-10.82,1.13-16.22,1.75-2.8.32-5.59.76-8.38,1.19-3.92.61-7.85,1.19-11.74,1.92-2.46.47-4.86,1.23-7.3,1.8a30.2,30.2,0,0,1-3.07.37c-.52-2.86-1-5.5-1.46-8.15q-2.8-16.69-5.57-33.39c-.09-.52-.11-1-.15-1.56-.15-2.12,0-2.32,2.09-2.58,4.36-.54,8.72-1,13.06-1.71,7.12-1.09,14.22-2.35,21.34-3.46,8.08-1.26,16.17-2.43,24.25-3.66,2.27-.35,4.53-.79,6.8-1.15s2.76.15,3.07,2.41q1.92,13.66,3.86,27.31c.56,3.89,1.19,7.76,1.72,11.66A26.59,26.59,0,0,1,1225.91,218.73Z"/></g>

	<g id="Marina"><path d="M1136.91,164.53c-12.56,2.15-24.75,4.12-36.89,6.36-7.62,1.41-15.11,3.5-22.75,4.77a154.4,154.4,0,0,0-19.51,4.77,7.47,7.47,0,0,1-5.21-.24,22.18,22.18,0,0,0-19.7,1,32.59,32.59,0,0,1-12.62,3.42c-3.62.34-7.25.64-11.24,1-.4-3.22-.88-6.08-1.09-9-.53-7.42-.94-14.84-1.4-22.26-.17-2.72-.48-5.43-.49-8.15,0-6.25-3-11-7.51-14.88a11.88,11.88,0,0,0-2-1.52,3.05,3.05,0,0,1-1.59-4.21,45,45,0,0,1,6.6-12.28,4,4,0,0,1,1.11.15c4.86,2.53,10.17,2.23,15.38,2.31a11.2,11.2,0,0,0,4.37-1.22c2.3-1,4.45-2.34,6.76-3.32,3.46-1.47,7-2.75,10.52-4.1,4.11-1.57,8.26-3.06,12.34-4.7a13.28,13.28,0,0,1,7.37-.89,14.9,14.9,0,0,0,3.12.25c2.86-.12,4.88,1.22,6.81,3.21a90.87,90.87,0,0,0,7.9,7.13c2.82,2.3,6.3,3.3,9.8,4a8.75,8.75,0,0,0,8.6-4.45,48.76,48.76,0,0,0,2.33-6.48,7.14,7.14,0,0,1,4.06-4.91q6.21-2.62,12.47-5.1c1.52-.6,2.65-.19,3.7,1.3,2.72,3.85,5.73,7.49,8.49,11.32a8.7,8.7,0,0,1,1.26,3.41q1.95,10.18,3.75,20.38,2.67,15,5.24,30A16.72,16.72,0,0,1,1136.91,164.53Z"/></g>

	<g id="RussianHill"><path d="M1148.68,176.73c-4-22.13-8.65-47.78-11.78-65.52-.73-4.12,6.61-4,9.57-6.46s5.81-8,9.75-6.7c1.34.45.76,2.21,1,3.09,1,3.22,2.26,4.25,5.64,4.45,1.78.11,3.57.06,5.36,0a3.91,3.91,0,0,1,3.53,1.72c4.32,6.46,10.44,11.13,16.17,16.16q15.34,13.48,31,26.66c4.24,3.58,8.82,6.75,13.25,10.11.87.66,1.72,1.35,2.84,2.23Z"/></g>

	<g id="NorthBeach"><path d="M1165.33,99.52a5.33,5.33,0,0,1-1.45-5.86c1-2.23,4.07-.63,5.89-.22,3.47.78,6.9,1.75,10.38,2.48,4.66,1,9,.46,12.41-3.32,1.41-1.54,3.12-2.84,4.37-4.5a4.45,4.45,0,0,1,4.94-1.82c6.12,1.35,12.29,2.53,18.32,4.22,4,1.12,7.78,3,11.69,4.52,4.89,1.86,9.77,3.75,14.72,5.42s9.77,3.68,13.79,7.27a4.48,4.48,0,0,0,3.44.9,46.06,46.06,0,0,0,6.46-2.28c.88-.33,1.69-.87,2.58-1.13,1.92-.57,2.62.12,2.69,2.18a58.05,58.05,0,0,0,.6,7.16c.8,5,2.7,5.89,7.56,6.29a14.69,14.69,0,0,0,5.76-1.23c3.85-1.36,7.61-3,11.44-4.4,5-1.83,10.89.59,12.81,5.45a103.89,103.89,0,0,1,3.13,10.21,3.9,3.9,0,0,1-.29,2c-.11.37-.51.66-.79,1-5,5.6-3.94,7.8,0,14.63,1.93,3.39,6.51,7.73,3.83,11.06-1.26,1.57-3.52-.16-5-.34-1.77-.21-3.51-.69-5.27-.79-3-.18-5.73-.63-8.06-2.8-1.69-1.57-4-1.18-6-.86-7.76,1.22-15.48,2.63-23.25,3.81-5.69.86-11.42,1.45-17.12,2.22-1.66.22-3.28.71-4.92,1a6.36,6.36,0,0,1-5.34-1.15c-4-3.08-8-6-12-9.17-4.5-3.61-8.92-7.31-13.29-11.07-8-6.89-16.09-13.76-24-20.79-5.86-5.22-12-10.19-16.77-16.54-2-2.59-5-3.28-8.11-3.53C1168.87,99.42,1166.87,100.73,1165.33,99.52Z"/></g>

	<g id="Presidio"><path d="M1000.74,236.28c-2-5.09-3.64-19.52-3.39-27.29a16.47,16.47,0,0,1,1.85-.23c1.51-.09,3.19.13,4.61-1.33-.11-.9-.17-1.93-.36-2.93-.71-3.69-1.59-7.36-2.16-11.07-.92-6-1.6-12-2.46-18-.53-3.72-1.4-7.41-1.73-11.15-.42-4.8-.44-9.63-.66-14.44a21.92,21.92,0,0,0-.39-4.67,9.88,9.88,0,0,0-4.58-6.43c-4.27-2.52-6-6.51-5.33-11.51a18.48,18.48,0,0,0,.19-3.13,14.77,14.77,0,0,1,2.09-7.8c1.18-2.09,2.29-4.22,3.48-6.4-1.15-1.54-2.25-1-3.33-.6-5.88,1.92-11.74,3.88-17.64,5.71a48.09,48.09,0,0,1-6.73,1.56c-5.39.85-10.79,1.61-16.2,2.32-4.16.55-8.33,1.25-12.51,1.4-7.45.26-14.91.07-22.36.21a65.92,65.92,0,0,1-15.58-1.73,51.1,51.1,0,0,1-25.45-14.14c-4.34-4.31-7.83-9.29-11.42-14.21-.77-1.06-1.82-2.32-3-2.63A33.47,33.47,0,0,0,845,86.48c-6.79.78-11,3.69-15.16-3.16,0,0-2-4.68-3.43-4.31-.95.24-.08,4.83-.27,6.55-.75,6.76-1.14,13.41-2,20.16-.86,7-1.51,13.94-3.57,20.7-5.36,17.65-11,35.2-18.31,52.16-3.75,8.66-7.14,17.47-11,26.1-1.95,4.39-4.48,8.52-6.79,12.74-.79,1.43-1.72,2.78-2.73,4.4,1.81.91,3.34,1.84,5,2.48a6.64,6.64,0,0,1,4.59,6.77c0,3.13,0,6.27,0,9.55,4.58,1,8.49,3.46,13.15,3.55,3.33.06,6.65.81,10,.91,3.63.11,7.27-.2,10.91-.29,4.09-.11,8.2.06,12.27-.32a164.06,164.06,0,0,1,19.76-1.17,21.69,21.69,0,0,0,3.46,0,83.71,83.71,0,0,1,20-.46c2.78.29,5.59.31,8.51.46.17-1,.31-1.77.45-2.58.28-1.65.47-3.32.86-4.94a3.06,3.06,0,0,1,3.12-2.53c4.81-.29,9.61-.74,14.41-1A24,24,0,0,0,919.49,229c0,3.89-.08,9.12-.08,9.52,0,6.83,0,13.66,0,20.49,0,2.92.38,3.09,3.36,3,3.45-.07,6.92,0,10.36.23a4.63,4.63,0,0,1,4.51,3.76c.55,2.65.94,5.35,1.26,8,.44,3.72.76,7.46,1.17,11.64l3.67-.18c4.92-.21,9.85-.31,14.76-.67,5.63-.41,11.28-.83,16.86-1.63,6.93-1,13.72-2.85,20.76-3.18,3.19-.15,3.88-.85,3.44-4.07-.6-4.46-1.45-8.88-2.28-13.3-.64-3.43-.46-6.61,1.77-9.54a35.2,35.2,0,0,0,2.82-4.91,9.58,9.58,0,0,0,.39-8.19C1001.8,238.8,1001.23,237.55,1000.74,236.28Z"/></g>

</svg>