<svg xmlns="http://www.w3.org/2000/svg" viewBox="0 0 1600 900">

	<defs><style>
		.cls-1{font-size:48px;font-family:Urbana-Medium, Urbana;letter-spacing:0.1em;}
		.cls-1,.cls-10,.cls-4,.cls-8,.cls-9{fill:#424243;}
		.cls-2{letter-spacing:0.09em;}.cls-3{letter-spacing:0.1em;}
		.cls-10,.cls-11,.cls-4,.cls-8,.cls-9{font-size:17px;font-family:Urbana-Light, Urbana;}
		.cls-4{letter-spacing:0.04em;}
		.cls-5{letter-spacing:0.04em;}
		.cls-11,.cls-6,.cls-8{letter-spacing:0.04em;}
		.cls-11,.cls-7{fill:#59595b;}
		.cls-9{letter-spacing:0.03em;}
		.cls-10{letter-spacing:0.02em;}
		.cls-12{letter-spacing:0.02em;}
	</style></defs>

	<g id="Legend">
		<text class="cls-1" transform="translate(145.81 126.17)">ORIGINAL US
		<tspan class="cls-2" x="273.31" y="0">A</tspan>
		<tspan class="cls-3" x="299.9" y="0">GE</tspan>
		<tspan x="0" y="53">OF LANDMARK</tspan></text>
	</g>


	<g id="Monumental_Structure" data-name="Monumental Structure"><text class="cls-4" transform="translate(209.75 828.81)">Monumental <tspan class="cls-5" x="90.66" y="0">S</tspan><tspan class="cls-6" x="98.33" y="0">tructure</tspan></text><path class="cls-7" d="M189.6,840a.82.82,0,0,1-.73.43,13.88,13.88,0,0,1-1.42-.07,17,17,0,0,1-1.77-.17c-.43-.1-.88-.11-1.32-.18a3.36,3.36,0,0,0-1.8.15,1.6,1.6,0,0,1-.12-.55,3.42,3.42,0,0,0,0-1,15.59,15.59,0,0,1-.12-3,6,6,0,0,0,0-1.43c-.16-1.11.07-2.22,0-3.33,0-.27,0-.54-.05-.81a32.83,32.83,0,0,0-.06-4.1c.3-.54-.13-.81-.44-1.16a2.15,2.15,0,0,0-.51,0c-.81.11-1.24-.49-1.75-.94a.38.38,0,0,1,0-.5,2.14,2.14,0,0,1,.41-.48,4.68,4.68,0,0,1,2.35-1.12,2.15,2.15,0,0,0-.44-1.7,5.28,5.28,0,0,0-1-1.13,3,3,0,0,0-2.26-.69c-.39,0-.78.07-1.16.11a2.51,2.51,0,0,0-2,1.38,5.07,5.07,0,0,0-.42,1.1,1,1,0,0,0,.35,1.18,3.94,3.94,0,0,1,1.21,1.43,1.5,1.5,0,0,1-1,1.07,2.81,2.81,0,0,0-.32.16.54.54,0,0,0-.36.57c0,1.29,0,2.59.12,3.88.11,1.84.25,3.67.45,5.5.14,1.34.38,2.68.58,4a2.26,2.26,0,0,0,.21.49,3,3,0,0,1,.13.34.47.47,0,0,1-.52.63,5.66,5.66,0,0,0-1.16-.11c-.4,0-.73-.35-1.14-.15a24.66,24.66,0,0,0-2.72-.46,3.31,3.31,0,0,0-1.25-.06,2.15,2.15,0,0,1-1.28-.29.59.59,0,0,1-.35-.67c.07-.4.19-.8.22-1.21,0-.65,0-1.31,0-2,0-.18-.06-.36,0-.53a24.35,24.35,0,0,0,.14-4,4.49,4.49,0,0,1,0-.9,17.56,17.56,0,0,0-.07-3.3c0-.39,0-.78.05-1.17s-.07-.51-.48-.63l-.44-.12a2.37,2.37,0,0,0-.28,0,4.49,4.49,0,0,0-.35-.38,1.42,1.42,0,0,1-.44-.86c-.09-.52,0-.71.48-.95a9.64,9.64,0,0,1,1.15-.52.81.81,0,0,0,.57-.82c0-.84.08-1.68.11-2.52,0-.24,0-.48,0-.71,0-.58-.15-.86-.74-.93a11.8,11.8,0,0,0-1.85-.32,3.74,3.74,0,0,1-.86-.19,1.39,1.39,0,0,0-.43-.06.7.7,0,0,1-.77-.49,1.84,1.84,0,0,1-.23-1.13,7.51,7.51,0,0,0-.08-1.7,4.88,4.88,0,0,1,.29-2.2,6.34,6.34,0,0,1,2.35.05,33.68,33.68,0,0,0,4.91.44c1.28,0,2.51.27,3.78.27l1.54,0c1.54,0,3.07,0,4.61,0,.56,0,1.13-.06,1.69-.11a3.3,3.3,0,0,1,.44-.07,29.33,29.33,0,0,0,4.41-.19c.36,0,.72,0,1.07,0a3.76,3.76,0,0,0,.71-.08,2.66,2.66,0,0,1,1.14-.1.62.62,0,0,0,.35,0,1.09,1.09,0,0,1,.95.11c.48.2.64.4.59.87s-.18.83-.19,1.24a14.44,14.44,0,0,0-.15,2,3,3,0,0,1-.51,1.7.66.66,0,0,1-.43.27,9,9,0,0,1-1,.07l-.81.06a.4.4,0,0,0-.38.34,6.13,6.13,0,0,0-.21,1.76,13.27,13.27,0,0,1,0,1.7.76.76,0,0,0,.72.87c.26.06.54.07.8.15.53.15.69.48.57,1a1.44,1.44,0,0,1-.61,1,2.4,2.4,0,0,0-1.07,2c0,.42,0,.84,0,1.26,0,.93.11,1.86,0,2.78a11.61,11.61,0,0,0,.11,1.7c0,.57.07,1.14.09,1.71a2.33,2.33,0,0,1,0,.7,3.55,3.55,0,0,0,0,1.78c.12.52.17,1.06.24,1.6a.82.82,0,0,1,0,.35A3.34,3.34,0,0,0,189.6,840Z"/></g>

	<g id="Park"><text class="cls-4" transform="translate(209.75 781.58)">Park</text><path class="cls-7" d="M181.67,778.32a3.16,3.16,0,0,0-.11.66q.15,2,.33,4.1c.09,1,.13,2,.29,2.93.39,2.48.83,4.95,1.27,7.42a5.79,5.79,0,0,0,.37,1,6.68,6.68,0,0,1,.33,1,.63.63,0,0,1-.64.8c-1.7-.2-3.32.35-5,.53a2.06,2.06,0,0,1-1.67-.4,1,1,0,0,1-.35-1.16,11.52,11.52,0,0,0,.48-4.34,19.9,19.9,0,0,1,.17-3.36c.11-1.12.36-2.24.41-3.36.08-1.57,0-3.14.05-4.71a3.68,3.68,0,0,0-.13-.65l-1.6-.14c-.34,0-.7,0-1,0A2.06,2.06,0,0,1,173,777c-.08-.33-.17-.66-.27-1l-1.2-.78a5.47,5.47,0,0,1-1.86-2.43,1.76,1.76,0,0,1-.08-.86c0-.39.13-.77.21-1.21-.28-.2-.56-.38-.83-.58a2.82,2.82,0,0,1-.9-2.91,1.7,1.7,0,0,1,.53-.7,6.05,6.05,0,0,1,1-.51c.05-.3.11-.63.17-1a5.84,5.84,0,0,1,.22-1,1.48,1.48,0,0,1,2.11-1,2.42,2.42,0,0,0,1.35.2c.27-.36.57-.74.85-1.14a1.23,1.23,0,0,1,1.56-.46,9.46,9.46,0,0,1,.92.45l.69.34c.28-.4.51-.76.77-1.11a1.35,1.35,0,0,1,1.4-.63c.66.14,1.42.17,1.62,1a2.47,2.47,0,0,0,.22.45c.47,0,1,0,1.44.06,1,.08,1.24.42,1.09,1.46,0,.15,0,.29-.06.44a1.29,1.29,0,0,0,0,.22c.34.08.7.19,1.07.25a2,2,0,0,1,1.76,2.54c-.09.43-.2.85-.3,1.25.07.11.11.22.19.26.57.3,1.25.58,1.32,1.28a3.58,3.58,0,0,1-.13,2.46,7.8,7.8,0,0,1-.47.92,3.91,3.91,0,0,0-1,2.92c.07,1.14-.84,2-1.6,2.73a.91.91,0,0,1-1,.16C183.1,778.86,182.46,778.61,181.67,778.32Z"/></g>

	<g id="Private_CLub" data-name="Private CLub"><text class="cls-4" transform="translate(209.75 734.35)">Private Club</text><path class="cls-7" d="M188.45,732a3,3,0,0,0,1.74-.31.59.59,0,0,0,.41-.61,7.6,7.6,0,0,0-.16-1.26c-.2-.9-.11-1.19.69-1.54a8.23,8.23,0,0,1,2.64-1c.63-.05,1.18-.47,1.85-.49.19,0,.39-.28.57-.45s.39-.37.67-.24a.88.88,0,0,1,.32.9,3.47,3.47,0,0,1-1.07,1.7,1.14,1.14,0,0,0,1.34.89c1.53-.14,1.55-.08.93,1.37a2.42,2.42,0,0,1-.56.83c-.49.48-.9,1-1.37,1.54a2.69,2.69,0,0,1-1.13.82c-.84.27-1,1-1,1.75a10.52,10.52,0,0,0,.1,1.53,1,1,0,0,1-.52,1.09,7.58,7.58,0,0,1-1.62.77,30.42,30.42,0,0,1-3,.64c-1.06.18-2.13.3-3.2.45a2.3,2.3,0,0,0-1.44.76c-.94,1-1.92,2-2.92,2.9a15.89,15.89,0,0,1-1.41,1.07,6.3,6.3,0,0,1-3.26-1.19,7,7,0,0,0-1.57-.84,2.47,2.47,0,0,1-1.23-.89,2.39,2.39,0,0,0-2.39-.92,11,11,0,0,1-4.18-.44,16.85,16.85,0,0,0-2-.46,2,2,0,0,1-1.68-1.38c-.11-.37-.25-.72-.39-1.12-.17-.06-.4-.23-.57-.19a3.68,3.68,0,0,1-2.13-.37c-.52-.18-1-.45-1.54-.59a1.39,1.39,0,0,1-1-.78c-.23-.62-.78-1-1-1.65.1-.32.37-.4.68-.43a2,2,0,0,0,1.27-.38,14.63,14.63,0,0,1-1.25-1.69,3.61,3.61,0,0,1-.77-1.92,1.35,1.35,0,0,1,1.18-.26c1.69.23,3.39.32,5.08.44,1.13.08,1.47.41,1.74,1.53.08.33.18.66.25,1a.88.88,0,0,0,.43.61c.15.08.34.18.4.31.32.72.87.7,1.52.56a2.54,2.54,0,0,0-.59-1.31,7.3,7.3,0,0,1-1.46-2.82,10.45,10.45,0,0,0-.55-1.13c-.35-.91-.69-1.83-1-2.76s-.62-2-1-3c-.15-.44-.37-.84-.59-1.33a.61.61,0,0,1,.81-.27,9.21,9.21,0,0,0,4.42.29,6.79,6.79,0,0,0,1.44-.46,8.16,8.16,0,0,1,1.79-.61c.67-.06,1.06-.73,1.75-.64a10.63,10.63,0,0,0,.94-.85,2,2,0,0,1,.91-.66,2.37,2.37,0,0,0,1.33-1.15,3.27,3.27,0,0,1,.36-.43c.59.5,1.17.94,1.69,1.44a2.83,2.83,0,0,0,1.57.83,9.13,9.13,0,0,1,1.46.44,3.08,3.08,0,0,0,1.86.27,3.72,3.72,0,0,1,.9,0,3.51,3.51,0,0,0,1.27-.1c1-.42,2-.4,3-.72a9.82,9.82,0,0,1,1.66-.25,4.23,4.23,0,0,1,.36,2.39q-.24,2-.48,4.09a2.91,2.91,0,0,1-.11.5c-.45,1.47-.74,3-1.07,4.47a6,6,0,0,1-.24.59A1.2,1.2,0,0,0,188.45,732Z"/></g>

	<g id="Commercial"><text class="cls-8" transform="translate(209.75 687.12)">Commercial</text><path class="cls-7" d="M179.08,666.11h0Z"/><path class="cls-7" d="M180.3,677.23l.08-.63c.06-.52.13-1,.15-1.55,0,0,0-.09,0-.14l1-.06a.63.63,0,0,0,.22,0h.34a5.65,5.65,0,0,0,.77,0l2,.22.23.07.5.13a2.59,2.59,0,0,1,.93.41.47.47,0,0,1,.22.27,1.57,1.57,0,0,0,.77,1l.26.16h1.17l0-.22.17,0,.64-.13.47-.1a4.53,4.53,0,0,0,.54-.15,1.45,1.45,0,0,0,.42-.24l.44-.34,0-.53a2.16,2.16,0,0,0-.48-1.48,4.2,4.2,0,0,0-.35-.76,2.42,2.42,0,0,0-.53-.68,2.07,2.07,0,0,0-.58-.62c-.18-.13-.36-.25-.54-.37l-.12-.08a1.47,1.47,0,0,0-.4-.18l-.08,0a1,1,0,0,0-.52-.25h-.06a2.19,2.19,0,0,0-.82-.23l-.45-.41-.51.21-.16,0a5.37,5.37,0,0,0-.72-.13,5.39,5.39,0,0,1-.56-.09,6,6,0,0,0-1-.13,2.15,2.15,0,0,1-.4-.06,3.75,3.75,0,0,0-.82-.11h-.24l-.44,0-.55,0h-.09a5.33,5.33,0,0,1,.15-.87,6.88,6.88,0,0,0,.18-.89c0-.18.05-.36.1-.54a1.14,1.14,0,0,0-.69-1.33,1.22,1.22,0,0,0-.4-.08l-.29,0a4.62,4.62,0,0,0-.54,0,2.3,2.3,0,0,0-.5.06V667h0l-.14-1h-.17a3.59,3.59,0,0,0-1.08.15,1.23,1.23,0,0,0-.79.76,2,2,0,0,0-.09.37l-.07.38c-.06.35-.13.7-.16,1.05,0,.18,0,.35-.07.52s-.07.44-.09.66a3.71,3.71,0,0,1-.06.38l0,.23-.27.08c-.26.06-.53.13-.79.21L175,671l-.44.12c-.5.13-1,.26-1.49.42l-.41.13a13.92,13.92,0,0,0-1.56.56l-.11,0a21.84,21.84,0,0,0-2.13,1,2.48,2.48,0,0,0-.36.18l-1.28.83a3.64,3.64,0,0,0-1.26,1.32,6.16,6.16,0,0,1-.39.62l-.22.32a3.34,3.34,0,0,0-.54,1.17l-.14.61a3.6,3.6,0,0,0-.11,1.25,6.27,6.27,0,0,0,.34,1.53,3.43,3.43,0,0,0,.25.49,2.87,2.87,0,0,0,.52.64l.12.12.08.1a2.17,2.17,0,0,0,.52.49,1.76,1.76,0,0,0,.66.48l.49.21.12,0a4.49,4.49,0,0,0,.61.2l.77.15.36.06.13,0a2.91,2.91,0,0,0,.48.09c.34,0,.69,0,1,0h.39a3.62,3.62,0,0,0,.59,0,3.29,3.29,0,0,1,.54,0h.73l.74-.06.83-.06.64,0s0,.09,0,.14q0,1.07-.08,2.14v.42a9.33,9.33,0,0,1-.07,1.09,1.93,1.93,0,0,0,0,.5,1.09,1.09,0,0,0,0,.12,1.67,1.67,0,0,0-.1.61s0,.89,0,1.07,0,.35,0,.53l-.19,0h-.37l-.17.07-.17,0h-.42a8.49,8.49,0,0,1-.9-.1,2.18,2.18,0,0,1-.43-.09c-.38-.14-.75-.28-1.12-.45a4.71,4.71,0,0,1-1.2-.73l-.11-.09-.46-.71c0-.12-.05-.24-.08-.36a1.25,1.25,0,0,1-.06-.4,1.34,1.34,0,0,0,0-.57l-.05-.34-.26-.23a1.54,1.54,0,0,0-1-.39h-.32c-.2,0-.85.07-.85.07a4.4,4.4,0,0,0-.66.07l-.22,0h-.42a1.18,1.18,0,0,0-1,1.16c0,.21,0,.42,0,.63a9,9,0,0,0,.12,1.47l.05.4a2.79,2.79,0,0,0,.25,1l.1.2c.06.12.11.24.18.36l.07.13a4.07,4.07,0,0,0,.75,1.09,5.51,5.51,0,0,0,1.9,1.24,1.59,1.59,0,0,0,.51.29,1.47,1.47,0,0,1,.23.11,2.57,2.57,0,0,0,.86.31,2.42,2.42,0,0,1,.43.14l.09,0a2.1,2.1,0,0,0,.84.2h.17a2.21,2.21,0,0,0,.33.06l1.86.16h.58a3.82,3.82,0,0,0,.76.09l.66,0,0,.66c0,.38,0,.77,0,1.15s.1,1.91.1,1.91a.72.72,0,0,1,0,.1,2.73,2.73,0,0,0,.06.85,1.37,1.37,0,0,1,0,.3,1.88,1.88,0,0,0,0,.61,1.86,1.86,0,0,1,0,.36,1.16,1.16,0,0,0,.08.43l.11.36.32.19a1.84,1.84,0,0,0,.95.26l.26,0,.35,0,.48,0,.54,0a1.93,1.93,0,0,0,1.41-.59,1.46,1.46,0,0,0,.43-1.26c0-.35-.07-.71-.1-1.06l0-.48a2.83,2.83,0,0,0,0-.37,16.89,16.89,0,0,1-.19-1.75c0-.49-.05-1-.07-1.48v-.28l.59-.11,1.23-.15.87-.1c.3,0,.59-.08.88-.14.58-.13,1.16-.28,1.74-.43a6.75,6.75,0,0,0,.78-.26l.6-.25.73-.3a4.82,4.82,0,0,0,1.63-1.06,3.92,3.92,0,0,0,.87-1.17,7.3,7.3,0,0,0,.59-1.91l0-.32c0-.15,0-.31.07-.45a3.68,3.68,0,0,0,0-1.17l0-.18c-.06-.57-.12-1.16-.24-1.74l0-.17a3.74,3.74,0,0,0-.19-.76,5.1,5.1,0,0,0-.86-1.45c-.21-.24-.41-.49-.61-.75a4.2,4.2,0,0,0-.59-.61,4.68,4.68,0,0,0-.39-.3l-.36-.26-.2-.12a1,1,0,0,1-.16-.1,4.27,4.27,0,0,0-.9-.58c-.12-.06-.25-.13-.37-.21a7.16,7.16,0,0,0-.76-.41l-.3-.15a3,3,0,0,0-1.09-.39l-.31-.12-.49-.17-.37-.09a1.6,1.6,0,0,1-.3-.08,4.76,4.76,0,0,0-1-.32l-1.16-.19,0-.2C180.22,677.93,180.26,677.58,180.3,677.23Zm4.31,8.84a3.61,3.61,0,0,1,.55,1.31,1,1,0,0,1,0,.66,1.8,1.8,0,0,1-.34.54,2.09,2.09,0,0,1-.75.54c-.27.09-.54.2-.81.3l-.49.19-.12,0a2.52,2.52,0,0,0-.45.14,2.27,2.27,0,0,1-.67.14,1.86,1.86,0,0,0-.45.11l-1.1.18c-.12-2.29-.16-4.38-.13-6.33a4.78,4.78,0,0,1,.66.13l.2.05h.13a2.47,2.47,0,0,1,.55.12,6,6,0,0,0,.61.15h0a2.1,2.1,0,0,0,.7.38l.19.07a1.16,1.16,0,0,0,.45.24.36.36,0,0,1,.13.1,2,2,0,0,0,.46.34l.07,0a2.46,2.46,0,0,0,.3.28A1.76,1.76,0,0,0,184.61,686.07Zm-8.49-9.61v.15a1.45,1.45,0,0,1,0,.25,1.56,1.56,0,0,0-.07.55l0,.45a1.24,1.24,0,0,0,0,.56.29.29,0,0,1,0,0l-1.19.08a4.2,4.2,0,0,0-1,.15,3.62,3.62,0,0,1-.68.11l-.56.07c-.32.05-.64.1-1,.13h-.27l-.65,0a1.12,1.12,0,0,1-.53-.1l-.19-.11a2.74,2.74,0,0,1,.43-.38,3,3,0,0,1,.79-.44l.57-.22.89-.35.73-.3.79-.33,1.6-.62a3.51,3.51,0,0,1,.5-.14C176.12,676.13,176.11,676.3,176.11,676.46Z"/></g>

	<g id="Education"><text class="cls-9" transform="translate(209.75 639.88)">E<tspan class="cls-6" x="7.34" y="0">ducation</tspan></text><path class="cls-7" d="M162.11,626.16l2-.17a2.8,2.8,0,0,1,.77,0c1.56.33,3.16.38,4.71.78,1.75.45,3.51.83,5.26,1.26.41.1.81.25,1.35.42.21-.16.52-.38.81-.63a9.53,9.53,0,0,1,4.79-2.37,17.63,17.63,0,0,0,1.73-.49c.87-.22,1.75-.41,2.64-.59a2.94,2.94,0,0,1,.9-.09,6.15,6.15,0,0,0,2.17-.11,1.84,1.84,0,0,1,.76.08,3.75,3.75,0,0,0,.73.2,1.39,1.39,0,0,1,1.42,1.06,7.35,7.35,0,0,1,.48,2c.08.68.23,1.35.31,2s.13,1.45.15,2.18a43.22,43.22,0,0,0,.44,4.85,13.9,13.9,0,0,1,.08,3.08,9.85,9.85,0,0,0,.23,3.32,5.42,5.42,0,0,1,.16,1.83,2,2,0,0,1-2,.48,2.6,2.6,0,0,0-1.13,0c-.85.1-1.7.13-2.55.25a14.19,14.19,0,0,0-5.57,1.93c-.37.23-.74.44-1.12.64a3.67,3.67,0,0,0-1.51,1.34.88.88,0,0,1-1.19.47,2.91,2.91,0,0,1-.35-.15,30.32,30.32,0,0,0-3-1.07c-.24-.08-.51-.07-.75-.12-.45-.1-.89-.25-1.35-.33a7.34,7.34,0,0,0-3.78,0,1,1,0,0,1-.37.09A4.78,4.78,0,0,0,167,649c-.39.18-.78.36-1.18.5a.65.65,0,0,1-.84-.37,2.75,2.75,0,0,1-.34-1.85,2.76,2.76,0,0,0-.15-1.24,22.41,22.41,0,0,1-.39-3.18C164,641.93,164,641,164,640c0-1.11-.09-2.23-.11-3.34a34.31,34.31,0,0,0-.52-5.09c-.22-1.34-.58-2.66-.9-4-.06-.24-.28-.45-.34-.69A3,3,0,0,1,162.11,626.16Zm6.27,16.11c1.15,0,2.17,0,3.2,0s2.11.09,3.19.14a2.84,2.84,0,0,0,0-1.44c-1-.34-1.92-.64-2.84-1a7.48,7.48,0,0,0-2.27-.43,2.42,2.42,0,0,0-1.52.45Zm-.16-4.61a3.64,3.64,0,0,0,.46,0,9.21,9.21,0,0,1,4.29.52,9.93,9.93,0,0,0,1.66.38c0-.57,0-1.12,0-1.67a.76.76,0,0,0-.39-.46,2.26,2.26,0,0,0-.74-.22c-1.48-.23-3-.46-4.45-.67a1.36,1.36,0,0,0-.75.06c-.2.1-.47.38-.45.55C167.9,636.65,167.7,637.22,168.22,637.66Zm20-5.22a1.53,1.53,0,0,0-.48-1.6c-.38,0-.85-.11-1.31-.12a18.31,18.31,0,0,0-2.93.38,5.81,5.81,0,0,0-2.15.77,1.69,1.69,0,0,0,.14,1.63,29.67,29.67,0,0,1,3.24-.87A33.41,33.41,0,0,1,188.22,632.44Zm-21.05-.82a2.57,2.57,0,0,0,.27,1.61c1.17.1,2.27,0,3.39.17s2.07.88,3.25.78c0-.14,0-.26.06-.38a1.08,1.08,0,0,0-.74-1.19,10.6,10.6,0,0,0-2.4-.9A6.79,6.79,0,0,0,167.16,631.61Zm15.27,9.16c1.12-.33,2.18-.67,3.26-1s2.15-.49,3.28-.75l-.22-.83c-1.27,0-2.47-.1-3.67-.13a5.74,5.74,0,0,0-2.84.74.61.61,0,0,0-.32.86C182,640,182.22,640.33,182.44,640.78Zm5.16-6.26a9.14,9.14,0,0,0-5.74,1.29.66.66,0,0,0-.17.19c-.15.2,0,.6.27.6a3.94,3.94,0,0,0,1-.09,12.82,12.82,0,0,1,2.67-.34,10.75,10.75,0,0,0,2.78-.37c.23-.08.41-.2.37-.43a.82.82,0,0,0-.31-.51A4.71,4.71,0,0,0,187.6,634.52Z"/></g>

	<g id="Entertainment"><text class="cls-4" transform="translate(209.75 595.35)">Entertainment</text><path class="cls-7" d="M161.29,584.13a3.59,3.59,0,0,1,1.24.15.82.82,0,0,0,.62,0,.9.9,0,0,0,0-.3,12.64,12.64,0,0,1-.65-2.15,5.17,5.17,0,0,1-.08-2.16,4.8,4.8,0,0,1,.5-1.5,4.28,4.28,0,0,1,.7-.91.59.59,0,0,1,.22-.15,2.5,2.5,0,0,0,.84-.59,3.34,3.34,0,0,1,1.84-.89,1.57,1.57,0,0,0,.32-.08,1.84,1.84,0,0,1,1-.09c.22,0,.42-.09.65,0a4.74,4.74,0,0,0,.59.08,4.61,4.61,0,0,1,1.49.48,5.59,5.59,0,0,1,.88.65,4.41,4.41,0,0,1,1.06,1.46c.08.18.17.37.26.54a3.93,3.93,0,0,1,.39,2.07,14.66,14.66,0,0,1-.62,3.05,3.07,3.07,0,0,1-.5.84,2,2,0,0,0-.36.71,1.47,1.47,0,0,0,.34.11c.73.06,1.45.14,2.18.17.48,0,1,0,1.5-.06,0-.15-.05-.25-.09-.35a6.5,6.5,0,0,1-.4-1.87,3.11,3.11,0,0,1,0-.82,6.35,6.35,0,0,0,.13-1,4.56,4.56,0,0,1,.68-2.06,3.89,3.89,0,0,1,.57-.73c.32-.34.68-.66,1-1a.69.69,0,0,1,.18-.13,12.62,12.62,0,0,1,1.45-.64,6.86,6.86,0,0,1,3.09-.26c.49.07,1,.2,1.44.31a3,3,0,0,1,1.26.75c.19.17.39.33.57.51a3,3,0,0,1,.43.56c.23.4.43.8.63,1.21a2.88,2.88,0,0,1,.15.41,4,4,0,0,0,.16.52,1.19,1.19,0,0,1,.14.68,12.92,12.92,0,0,0,.09,1.34c0,.29-.15.57,0,.87a.12.12,0,0,1,0,.1,3.63,3.63,0,0,0-.39,1,1.06,1.06,0,0,1-.24.36,1.34,1.34,0,0,0-.34.5c.16.09.3,0,.44,0a2.11,2.11,0,0,0,.38-.05,2.52,2.52,0,0,1,1,0,.93.93,0,0,1,.81.56,3,3,0,0,1,.16.63c0,.27.06.54.08.82a15.76,15.76,0,0,0,.29,1.7,1.47,1.47,0,0,0,.29-.13l1.29-1,.8-.66.73-.56a.62.62,0,0,0,.22-.23,2.91,2.91,0,0,1,.9-1.07,5.75,5.75,0,0,0,1.43-1.17,3.35,3.35,0,0,1,.75-.53.76.76,0,0,1,.22,0,1.92,1.92,0,0,1,.18,1c0,1.27-.15,2.55-.07,3.82,0,.73,0,1.46.07,2.18s.17,1.52.17,2.28.08,1.6.11,2.4a8.63,8.63,0,0,0,.19,1.79c.07.29,0,.35-.14.67a.92.92,0,0,1-.66-.2c-1.57-1-3.07-2-4.6-3.09-.48-.33-1-.63-1.49-.94a3,3,0,0,0-.33-.15,2.22,2.22,0,0,0-.11.81c0,.43,0,.86,0,1.3a2.38,2.38,0,0,1,0,1s0,.11,0,.15a2.5,2.5,0,0,1,.24,1,1.43,1.43,0,0,1,0,.43.54.54,0,0,1-.47.46,5.38,5.38,0,0,1-1,.09,1.72,1.72,0,0,0-1.14.31,2,2,0,0,0,0,.82,1.44,1.44,0,0,1-.09.81.54.54,0,0,1-.58.41c-.56,0-1.12,0-1.68,0a7.74,7.74,0,0,0-1.09,0l-2.34,0-2.63,0h-1.81l-3.07,0-2.46-.07c-.91,0-1.83,0-2.74-.07a29.66,29.66,0,0,1-4.31-.3,2.64,2.64,0,0,1-1.06-.22,3.23,3.23,0,0,1-.55-.24.67.67,0,0,1-.38-.62c0-.51,0-1,0-1.53,0-.28-.08-.41-.33-.49a1.69,1.69,0,0,0-.48-.11,7.35,7.35,0,0,1-1.32-.35.19.19,0,0,1-.09-.05,1.43,1.43,0,0,1-.54-1.2c0-.27,0-.54,0-.82s0-.44,0-.66.08-.69.08-1a13,13,0,0,1,.25-2c.22-1.3.46-2.59.7-3.88,0-.13,0-.25,0-.38,0-.33.09-.65.14-1s.09-.65.11-1A2.1,2.1,0,0,1,161.29,584.13Zm18.58,0a.57.57,0,0,0-.41.64,1.5,1.5,0,0,0,.43.81.85.85,0,0,0,1.05.13,1.09,1.09,0,0,0,.41-1.11.6.6,0,0,0-.47-.48A2.23,2.23,0,0,0,179.87,584.12Zm-10.45-3.57a1.06,1.06,0,0,0-.57.95.82.82,0,0,0,.55.69,1.35,1.35,0,0,0,.53.09.53.53,0,0,0,.57-.42,2.48,2.48,0,0,0,.1-.7.64.64,0,0,0-.39-.61A1.24,1.24,0,0,0,169.42,580.55Zm10,.46a1.06,1.06,0,0,0-1-.39c-.45,0-.65.19-.79.68a1.72,1.72,0,0,0,0,.46l.73.47a.53.53,0,0,0,.62,0,1,1,0,0,0,.45-.77C179.46,581.29,179.45,581.16,179.44,581Zm5,1.62a1.84,1.84,0,0,0-.23-.23c-.12-.09-.26-.14-.38-.22a.58.58,0,0,0-.62,0,.71.71,0,0,0-.42.9.82.82,0,0,0,.68.69.64.64,0,0,0,.83-.33c.05-.07.09-.16.14-.23A.62.62,0,0,0,184.44,582.63Zm-18.54.23a6.47,6.47,0,0,0,.2.65.65.65,0,0,0,.75.4,1.49,1.49,0,0,0,.31-.1.71.71,0,0,0,.31-.93,1.17,1.17,0,0,0-.67-.46.65.65,0,0,0-.65.2Zm3.21-4.83a.64.64,0,0,0-.58-.42,2,2,0,0,1-.27,0,.55.55,0,0,0-.68.57,1.75,1.75,0,0,0,0,.33.63.63,0,0,0,.41.48.51.51,0,0,0,.61-.06c.11-.1.25-.15.36-.25A.45.45,0,0,0,169.11,578Zm-4.33.82a1.11,1.11,0,0,0-.07,1.14.63.63,0,0,0,.45.37.51.51,0,0,0,.57-.2,1.49,1.49,0,0,0-.41-1.2Zm17.78.35a.66.66,0,0,0-.79-.41.35.35,0,0,0-.29.48,1.15,1.15,0,0,0,.38.58.47.47,0,0,0,.71-.09C182.71,579.57,182.6,579.38,182.56,579.19Z"/></g>

	<g id="Restaurant"><text class="cls-10" transform="translate(209.64 544.52)">R<tspan class="cls-6" x="8.45" y="0">estaurant</tspan></text><path class="cls-7" d="M167,522.11c.13,0,.18,0,.21,0,1.17.55,1.24.61,1.36,1.86s.2,2.55.32,3.83a1.77,1.77,0,0,0,.22.67c.06.11.24.15.36.22.09-.12.16-.17.17-.24a12.41,12.41,0,0,1,.47-2.59,3.17,3.17,0,0,0,.15-1.42,4.47,4.47,0,0,1,.3-2,.56.56,0,0,1,.74-.41,1.32,1.32,0,0,1,.9,1.14c0,.72.12,1.43.16,2.15s0,1.44.09,2.16c0,.09.12.18.17.26s.2-.07.21-.11c.25-.8.52-1.6.73-2.41s.33-1.56.49-2.35c.11-.52.11-.52.76-.83a3.44,3.44,0,0,1,1.25,2.22,17.75,17.75,0,0,1,.28,2.61,7.8,7.8,0,0,1-.67,2.91c-.23.59-.5,1.18-.77,1.76a5.39,5.39,0,0,1-1.06,1.86,2.07,2.07,0,0,0-.48,1.8c.2,1.63.24,3.27.43,4.9a35.07,35.07,0,0,1,.12,3.94c0,1.28-.07,2.55-.1,3.83a1.91,1.91,0,0,0,.06.6,5.57,5.57,0,0,1-.08,2.49,1.75,1.75,0,0,1-.33.77.85.85,0,0,1-.57.37,6.32,6.32,0,0,1-2.37-.32,6.59,6.59,0,0,1-1.31-.82,1,1,0,0,1-.27-.64,22.22,22.22,0,0,1,.11-4.61c.1-.72.11-1.43.18-2.14s.19-1.42.23-2.14c0-.87,0-1.74,0-2.62a11.2,11.2,0,0,1,0-1.2,13.75,13.75,0,0,0,0-3,2.11,2.11,0,0,0-.9-1.6,4.76,4.76,0,0,1-1.88-3.31c-.24-1.1-.06-2.23-.36-3.31a2.79,2.79,0,0,0-.09-1.61A3.54,3.54,0,0,1,167,522.11Zm18.86,10.81c-.08-.65-.27-1.28-.41-1.92-.18-.82-.26-1.67-.46-2.49a17.79,17.79,0,0,0-.65-2l-.19-.52-.67-1.79a3.73,3.73,0,0,0-1.15-1.8,1,1,0,0,0-1.4.24,6.53,6.53,0,0,0-.35,3.3,30.32,30.32,0,0,1-.37,5.29l-.47,5.57c-.29,3.39-.76,6.75-1.12,10.14a25.16,25.16,0,0,0-.18,2.87,4.9,4.9,0,0,1-.1,1.54,1.2,1.2,0,0,0,.56,1.43,1.77,1.77,0,0,0,1.8.22c.56-.17.65-.65.73-1.14,0-.08,0-.16.05-.23.13-2,.37-3.91.35-5.88,0-1,.1-2.08.09-3.12a3.08,3.08,0,0,1,.88-2.17,6.18,6.18,0,0,1,.65-.71,6.87,6.87,0,0,0,2.16-3.72A8.9,8.9,0,0,0,185.84,532.92Z"/></g>

	<g id="Bar"><text class="cls-11" transform="translate(209.64 498.19)">Bar</text><path class="cls-7" d="M174.4,506.83c0-.43,0-.89-.07-1.36-.08-1-.17-1.91-.27-2.86,0-.37-.08-.74-.12-1.12-.08-.7-.16-1.39-.24-2.09-.05-.49-.1-1-.15-1.46a.42.42,0,0,0-.09-.26c-.37-.31-.51-.78-.82-1.14a3.64,3.64,0,0,0-.65-.63,2.48,2.48,0,0,1-.57-.61,20.06,20.06,0,0,0-1.95-2.4,9.17,9.17,0,0,1-.57-.78c-.43-.55-.9-1.08-1.31-1.65-.65-.92-1.33-1.81-2.06-2.67-.24-.28-.39-.64-.64-.92a14.65,14.65,0,0,1-1.1-1.45c-.28-.4-.54-.82-.81-1.23a1,1,0,0,1-.13-.91l1-.1a1.73,1.73,0,0,0,.75-.14A.84.84,0,0,1,165,483c1.28-.09,2.56-.1,3.84-.1s2.62,0,3.93-.09,2.9-.16,4.34-.26c.42,0,.84-.1,1.26-.15a.72.72,0,0,0,.48-.26l.57-.62a.89.89,0,0,0,.22-1,3.47,3.47,0,0,1-.17-1.45,1.77,1.77,0,0,1,.23-.8,5.87,5.87,0,0,1,2.47-2.23,5.17,5.17,0,0,1,1.08-.27c.11,0,.23,0,.35,0a.91.91,0,0,0,.68-.44,2.61,2.61,0,0,1,.72-.93c.08-.05.1-.2.13-.31a.48.48,0,0,0,0-.21,1.83,1.83,0,0,1,1.08-1.95,1.28,1.28,0,0,1,1.57.11,1.26,1.26,0,0,1,.49,1.3c0,.16-.08.32-.1.48a1.36,1.36,0,0,1-1,1.16l-.33.12a.45.45,0,0,1-.56-.11.27.27,0,0,0-.46.08l-.77,1.39a3.76,3.76,0,0,1-.34,2.9,1.21,1.21,0,0,1-.5.57,2.12,2.12,0,0,0-.52.47,3.78,3.78,0,0,1-2.48,1.28c-.19,0-.37.07-.4.35a.84.84,0,0,0,.24.06c1.14-.06,2.29,0,3.42-.17a2.18,2.18,0,0,1,.35,0,.7.7,0,0,1,.6,1c-.16.3-.19.69-.57.85-.07,0-.11.15-.16.22-.52.8-1,1.63-1.57,2.41s-1.1,1.5-1.57,2.31a5.92,5.92,0,0,1-.4.49c-.19.26-.38.53-.56.8-.35.52-.68,1.06-1,1.57-.5.73-1.06,1.42-1.53,2.17a11.57,11.57,0,0,0-1,1.67,7.18,7.18,0,0,1-.89,1.42,1.69,1.69,0,0,0-.33,1,17.25,17.25,0,0,0,.29,3c.09.5.15,1,.2,1.52a16.5,16.5,0,0,0,.2,1.67,15,15,0,0,1,.15,1.74c0,.11,0,.23,0,.37.76.39,1.5.77,2.25,1.14a5.85,5.85,0,0,0,.73.25l.53.17a.94.94,0,0,1,.57,1.36,2.5,2.5,0,0,1-1.06,1.27,2.68,2.68,0,0,1-.86.26c-.41.07-.83.09-1.25.13-.74.06-1.49.11-2.23.19s-1.3.16-1.94.29a3.22,3.22,0,0,1-1.92-.21.67.67,0,0,1-.36-.32,1.11,1.11,0,0,1,.18-1.35,8.42,8.42,0,0,1,1.23-1A7.74,7.74,0,0,0,174.4,506.83Z"/></g>

	<g id="Bridge"><text class="cls-8" transform="translate(209.64 450.96)">Bridge</text><path class="cls-7" d="M190.54,434.6a34.26,34.26,0,0,0,.34,5.41q.26,3.18.52,6.36a2,2,0,0,0,.07.28c.92,0,1.83-.13,2.75-.18a.72.72,0,0,1,.42.07c.26.16.32.56.33.9a11.52,11.52,0,0,1-.1,1.78.62.62,0,0,1-.12.35.45.45,0,0,1-.26.11c-.79.14-2.91,0-2.81,1.22.06.69.16,6.75.08,7.09a19.56,19.56,0,0,0-2.89.2,63.91,63.91,0,0,1-.31-6.41,2.55,2.55,0,0,0-.31-1.72,2,2,0,0,0-.34-.06c-1.92-.06-3.83,0-5.75-.11-4.44-.3-8.87-.93-13.29-1.68-2.21-.37-4.42-.78-6.62-1.19-.49-.09-1.78-.62-2.19-.21s-.23,1.09-.25,1.47c0,.84,0,1.67,0,2.51l0,5c0,.48.25,1.4-.48,1-.44-.24-2.81,0-3.08-.24s-.2-2.57-.14-2.93a30.73,30.73,0,0,0,.2-4.25c0-1.09,0-2.18,0-3.27,0-.22,0-.44,0-.67,0-.38-.06-.5-.39-.61-.54-.19-1.11-.36-1.63-.6a1.27,1.27,0,0,1-.77-.89,1.91,1.91,0,0,1,0-.61l.23-1.58a.24.24,0,0,1,.06-.15.16.16,0,0,1,.13,0,5.51,5.51,0,0,1,1.66.89c.76.42,1.08.41,1.15-.59s.1-2.27.21-3.39.13-2.26.2-3.39c0-.71.07-1.42.13-2.12,0-.42.12-.82.18-1.27a2.59,2.59,0,0,1,.57,0,.77.77,0,0,0,.5,0c.28-.13.48,0,.65.28l0,.06a15.13,15.13,0,0,0,1.21,2,1.22,1.22,0,0,0,.2.24,2.43,2.43,0,0,1,.18.17,19.54,19.54,0,0,0,2.91,2.7,18.32,18.32,0,0,0,3.08,2,12,12,0,0,0,3,1.13c.75.19,1.49.39,2.25.53.47.09,1,.09,1.42.15a10.37,10.37,0,0,0,3-.09c.49-.08,1-.09,1.47-.17s.89-.21,1.33-.32,1.14-.28,1.7-.46,1.29-.48,1.93-.72a2.12,2.12,0,0,1,.21-.09,8.78,8.78,0,0,0,2.74-1.36c.37-.25.75-.48,1.13-.72a2.75,2.75,0,0,0,.71-.74,2.21,2.21,0,0,0,.56-.88c0-.12.16-.23.27-.3a1,1,0,0,1,.33-.1A4.21,4.21,0,0,1,190.54,434.6Zm-28.64,9.13a51.74,51.74,0,0,0-.07-6.83l-.43-.35-1.54-1.21c-.08-.06-.15-.15-.27,0,0,.42.1.87.11,1.31,0,.67,0,1.33.05,2s.1,1.42.14,2.14,0,1.33.07,2a4.74,4.74,0,0,0,.08.52A8.83,8.83,0,0,0,161.9,443.73Zm26.43,3c0-.42.15-.77.16-1.18s0-1-.05-1.45c0-1-.06-1.91-.06-2.87,0-.47,0-.93,0-1.4a6.38,6.38,0,0,1,.08-1.52,5.68,5.68,0,0,0,0-1.26,1,1,0,0,0-.12-.29l-1.2,1.13c0,.63,0,1.23,0,1.83,0,.94.05,1.87,0,2.81,0,1.25,0,2.49,0,3.74a2.48,2.48,0,0,0,.1.83C187.71,447.13,187.71,447.13,188.33,446.76Zm-8.09.33a47.5,47.5,0,0,0-.05-5.91c-.07,0-.15,0-.21,0a2.14,2.14,0,0,1-.71.19c-.24,0-.48.1-.72.17s-.43.19-.45.62c0,.09,0,.18,0,.27,0,1.11.07,2.22.12,3.34a7.5,7.5,0,0,0,.1.93.4.4,0,0,0,.36.38A4,4,0,0,0,180.24,447.09Zm4.24-7.55c0,.94,0,1.83,0,2.72,0,.56,0,1.11-.05,1.66,0,.82-.06,1.64-.08,2.46a2.94,2.94,0,0,0,.05.53c.06.36.25.56.56.55a2.43,2.43,0,0,0,.61-.13c.3-.09.36-.19.35-.56,0-.6,0-1.2,0-1.81s0-1,0-1.53c0-1.29,0-2.58-.07-3.88a1,1,0,0,0-.13-.58C185.24,439,184.91,439.34,184.48,439.54Zm-2.87,1.11c0,.42,0,.8,0,1.18s-.06.79-.07,1.19c0,1.16,0,2.31,0,3.47a1.25,1.25,0,0,0,.24.83l1.3,0a2.51,2.51,0,0,0,.06-.47c-.07-1.07,0-2.13.06-3.2s0-2,0-3.07a1.64,1.64,0,0,0-.13-.4A11.61,11.61,0,0,0,181.61,440.65Zm-17-1.54c-.44-.34-.86-.66-1.28-1-.07,0-.17,0-.3,0,.16,1.94.17,3.82.18,5.71a1.29,1.29,0,0,0,0,.24,3.84,3.84,0,0,0,1.76.52.53.53,0,0,0,.06-.17c0-.53,0-1.07,0-1.6-.07-1-.18-1.9-.28-2.86C164.76,439.66,164.69,439.38,164.64,439.11Zm8.88,7.13c.22-.13.22-.33.23-.53,0-.75,0-1.5.06-2.26a6.33,6.33,0,0,0-.13-1.49,4.39,4.39,0,0,0-2-.16c0,.16,0,.33,0,.5,0,.56,0,1.11.07,1.67s.08,1.07.12,1.6a.33.33,0,0,0,.19.31c.3.11.57.36.91.25A.62.62,0,0,1,173.52,446.24Zm1.63-4.33a2.62,2.62,0,0,0,0,.28c0,1.09,0,2.18,0,3.27,0,.22,0,.45,0,.67a.34.34,0,0,0,.23.35,6.17,6.17,0,0,1,1,.33.39.39,0,0,0,.17,0c.35,0,.48-.16.46-.57q-.09-2-.2-3.95a.65.65,0,0,0-.18-.51Zm-8.7-1.8a3.21,3.21,0,0,0,0,.82c0,.24.08.48.1.73.07,1,.12,2,.19,3.06a1.25,1.25,0,0,0,.11.31l1.13.18a29,29,0,0,0-.14-4.48,2.68,2.68,0,0,0-1-.65C166.72,440,166.58,440.09,166.44,440.11Zm2.81,1c0,.2,0,.35,0,.5,0,.38,0,.76,0,1.13,0,.69,0,1.38,0,2.07s0,.56.5.72l.27.11c.36.11.51,0,.49-.44,0-.24,0-.49,0-.73,0-.67,0-1.33-.06-2a7.06,7.06,0,0,0-.12-.86.45.45,0,0,0-.24-.36A1.22,1.22,0,0,0,169.26,441.13Z"/></g>

	<g id="Hotel"><text class="cls-4" transform="translate(209.64 403.72)">Hotel</text><path class="cls-7" d="M175.76,414.82c-1.73.16-5.18.86-6.3.49.06-1.22,0-5.6,0-6.1-.11-.87.12-6.09.11-6.78s.09-6.25.46-7.09c.1-.22,4.24-.23,5.65-.43.71.44,0,5.41.08,5.79.93.1,2.34.37,2.66.12.16-1.32.22-5.32.38-6,1.16-.88,3.72-.56,5.18-.76.54-.33.88,17.54.9,19.53.16.57-1.43.61-2.72.68-.41,0-1.74,0-2.54.05-.67-.6-.14-6.6-1.14-8.37a9.14,9.14,0,0,0-1.21-.2c-.93.06-1.14-.29-1.17.46-.05,1.87-.51,4.68-.21,6.52A10.25,10.25,0,0,1,175.76,414.82Zm12.81-24.75c-.51-.53-1.07-1-1.62-1.51s-.87-.69-1.28-1.05-.78-.8-1.22-1.13q-3.71-2.8-7.45-5.56c-.6-.44-1.16-.37-1.84.23-.85.76-1.69,1.54-2.52,2.32-2.08,2-4.18,3.9-6.22,5.89-1.23,1.19-2.4,2.44-3.53,3.71a3.8,3.8,0,0,0-.75,1.45c-.12.43-.16,1.19.36,1.13,2.84-.33,5.68-1.34,8.54-1.23a1.1,1.1,0,0,0,.39-.15,9.26,9.26,0,0,1,3-.71,21.09,21.09,0,0,0,3.22-.78,1.88,1.88,0,0,1,.41,0c2-.05,4.06-.1,6.1-.16,1.49,0,3-.12,4.41-.18A1.6,1.6,0,0,0,188.57,390.07Z"/></g>

	<g id="Public_Service" data-name="Public Service"><text class="cls-4" transform="translate(209.64 356.49)">Public Service</text><path class="cls-7" d="M161.05,346.73h-.94l-.9,0a2.5,2.5,0,0,1-.48,0c-.1,0-.25-.08-.28-.16s.11-.23.23-.29a8.64,8.64,0,0,0,1.31-1c.67-.47,1.29-1,1.94-1.48a9.35,9.35,0,0,1,1-.61,6,6,0,0,0,1.22-.82.57.57,0,0,1,.17-.12,12.25,12.25,0,0,0,2.67-1.63,1.21,1.21,0,0,1,.23-.16,10.92,10.92,0,0,0,2.24-1.39A20.17,20.17,0,0,1,172,337.5a4.32,4.32,0,0,0,1.19-.73.51.51,0,0,1,.18-.11,5.29,5.29,0,0,0,1.63-1,.38.38,0,0,1,.46-.05,4.76,4.76,0,0,1,1.5.87,1.26,1.26,0,0,0,.29.18,8.82,8.82,0,0,0,1,.62c.61.28,1.13.71,1.73,1,.32.16.6.43.93.6s.65.37,1,.52.39.37.66.5c.66.33,1.27.75,1.91,1.13.3.18.61.33.91.51s.59.38.88.57a1.64,1.64,0,0,0,.36.21,8.64,8.64,0,0,1,2.18,1.36,7.15,7.15,0,0,0,1.13.68,3.3,3.3,0,0,1,.8.54,2.13,2.13,0,0,0,.85.57c.32.08.39.43.2.73a1.77,1.77,0,0,1-.16.19c-.11-.05-.23-.12-.35-.17a2.8,2.8,0,0,0-.46-.14,1.37,1.37,0,0,0-.35,0l-1.13.09a2.59,2.59,0,0,0-.07.43q0,1.63,0,3.25c0,.73,0,1.46.05,2.19a26.34,26.34,0,0,0,.16,3.31,7.86,7.86,0,0,0,0,1.82c.06.48.09,1,.1,1.47l1.22.08a.73.73,0,0,1,.39.77,2.57,2.57,0,0,0,0,1,2.71,2.71,0,0,1,0,.56,1,1,0,0,0,0,.35,1.18,1.18,0,0,1-.13,1.08,1.29,1.29,0,0,0,.75.13c.54,0,.69.17.8.7a3.12,3.12,0,0,1,0,1.19.33.33,0,0,1-.33.3,5.6,5.6,0,0,1-1.25,0,6.18,6.18,0,0,0-1.32,0c-.46,0-.93.09-1.39.13a.66.66,0,0,1-.14,0,11,11,0,0,0-2.36,0c-.25,0-.51,0-.76,0a7.84,7.84,0,0,1-1.11,0,10.55,10.55,0,0,0-1.38.1c-.11,0-.23.06-.34.06h-1.46l-1.46,0a5.33,5.33,0,0,0-1.39.05.8.8,0,0,1-.28,0,18.17,18.17,0,0,0-2.91,0c-.65,0-1.3,0-1.95,0-.32,0-.65,0-1,0a1.8,1.8,0,0,1-.83-.07.7.7,0,0,0-.27-.06c-.56,0-1.12,0-1.67.07a4.85,4.85,0,0,1-1.24,0,4.9,4.9,0,0,0-1,0,3.27,3.27,0,0,1-1.17-.06,3.35,3.35,0,0,0-.83-.06h-1.32l-.55,0-1.18.06c-.35,0-.7,0-1,0a4.54,4.54,0,0,1-1.25,0,.86.86,0,0,0-.41,0,.69.69,0,0,1-.56-.1,2.22,2.22,0,0,1,0-2l1-.22a2.66,2.66,0,0,0,0-1.33,3.67,3.67,0,0,1-.15-1.26l1.26,0a1.94,1.94,0,0,0,1.23-.15,2.88,2.88,0,0,1-.21-1.73s0-.05,0-.07a4.13,4.13,0,0,1-.11-1.38c0-.37,0-.75,0-1.12a12.62,12.62,0,0,1,0-1.52q0-.59,0-1.18c0-1.08,0-2.16-.06-3.24,0-.4-.08-.79-.12-1.19s-.1-1.07-.16-1.61A2.94,2.94,0,0,0,161.05,346.73Zm4.5,13.23c.62-.05,1.18-.06,1.72-.16a9.87,9.87,0,0,1,1.93-.13,1.16,1.16,0,0,0,.63-.13c0-.45,0-.87,0-1.29a6,6,0,0,1,0-1.46,2.34,2.34,0,0,0,0-1.09c0-.09-.06-.21,0-.27a.83.83,0,0,0,.06-.6,18.66,18.66,0,0,1-.12-2.16,9.1,9.1,0,0,0-.17-2.36,8.52,8.52,0,0,1-.1-1.4c0-.61,0-1.21-.08-1.82a1.28,1.28,0,0,0-.07-.41.28.28,0,0,0-.2-.16c-.79,0-1.58.06-2.36.13a3,3,0,0,1-1-.06c-.63-.17-.84,0-.72.67a5.38,5.38,0,0,1,.11,1.53,3.74,3.74,0,0,0,0,1.05c.15.75,0,1.49.09,2.24s.09,1.82.14,2.73.09,1.73.14,2.6.07,1.5.11,2.25A1.22,1.22,0,0,0,165.55,360Zm11.79-13.49a18.36,18.36,0,0,0-2.1,0c-.69.08-1.38-.2-2.07,0a1,1,0,0,0,0,.19c.1,2.09.2,4.18.32,6.27.09,1.62.16,3.25.11,4.87a7.59,7.59,0,0,0,0,1c0,.41.19.53.59.52a2.29,2.29,0,0,1,.62,0,1,1,0,0,0,.74-.06c.11-.05.27,0,.4,0s.24.05.33,0a1.36,1.36,0,0,1,.76,0,2.18,2.18,0,0,0,.92,0c0-.83,0-1.63,0-2.42a11.21,11.21,0,0,0-.07-2.1,5.52,5.52,0,0,1,0-1.39.88.88,0,0,0,0-.35,2.05,2.05,0,0,1-.07-.9,6.07,6.07,0,0,0-.05-1.12,17.31,17.31,0,0,1-.17-2.23A11.93,11.93,0,0,0,177.34,346.48Zm8.13,12.22c0-.57,0-1.13,0-1.69a4.47,4.47,0,0,1-.06-1.18,3.24,3.24,0,0,0,0-1.25,8.89,8.89,0,0,1-.07-.91c0-.51,0-1,0-1.54,0-.32-.05-.65-.06-1,0-.75,0-1.5,0-2.25s-.1-1.64-.17-2.46a1.11,1.11,0,0,0-.15-.34,26.59,26.59,0,0,0-3.3,0,3.53,3.53,0,0,0-.41.06,1.19,1.19,0,0,0-.07.29c0,.52,0,1,.05,1.55s.15,1.21.21,1.82c.15,1.71.17,3.43.23,5.15,0,.47,0,.94,0,1.41,0,.63,0,1.27.07,1.9,0,.23,0,.46.06.67a1.38,1.38,0,0,0,.85.11c.67,0,1.35-.1,2-.09A1.14,1.14,0,0,0,185.47,358.69Z"/></g>

	<g id="Place_of_Worship" data-name="Place of Worship"><text class="cls-4" transform="translate(209.64 309.26)">Place of <tspan class="cls-12" x="57.32" y="0">W</tspan><tspan x="70.14" y="0">orship</tspan></text><path class="cls-7" d="M179.14,301.84c.36.39.72.73,1,1.11a8.25,8.25,0,0,1,.59.93c.09.15.16.3.25.45s.18.2.19.31c.09.67.52,1.23.61,1.89s.2,1.61.24,2.42a16.13,16.13,0,0,1-.46,4.25,2.24,2.24,0,0,1-.23.62,10.75,10.75,0,0,1-1.54,2.25,7.46,7.46,0,0,0-.56.74.24.24,0,0,0,.27.24c.17,0,.34,0,.52,0a3.49,3.49,0,0,1,1.87.6,1.56,1.56,0,0,1,.71.89.5.5,0,0,1,0,.16c-.32.55-.31.57-.91.77a11,11,0,0,1-2.46.49l-1.18.09-.88,0a3.29,3.29,0,0,0-.44,0c-1.65.29-3.31.5-5,.66a5.6,5.6,0,0,1-2.79-.45.71.71,0,0,1-.43-.53,2.44,2.44,0,0,1,.08-1.52,6.8,6.8,0,0,1,1.3-2.19,8.19,8.19,0,0,0,.66-1c.5-.79,1-1.59,1.48-2.39a2,2,0,0,0,.35-1.3,4.86,4.86,0,0,1-1.79-1.21,5.73,5.73,0,0,1-1.75-2.92c-.06-.29-.09-.58-.13-.87a.72.72,0,0,1,.33-.7,1.25,1.25,0,0,1,1.3-.28.7.7,0,0,1,.26.12A6.8,6.8,0,0,1,172,307a1.32,1.32,0,0,0,1.35.57,4.19,4.19,0,0,0,.28-1.7,3,3,0,0,0-.45-.23,3.45,3.45,0,0,1-1.72-1.22,11.19,11.19,0,0,1-.94-1.33,3.4,3.4,0,0,1-.42-1.25,5.85,5.85,0,0,1,.94-4.08,3.39,3.39,0,0,1,1.06-1,5.19,5.19,0,0,1,2.66-.77,4.3,4.3,0,0,1,2,.38c.33.17.68.29,1,.46a1.15,1.15,0,0,1,.4.31,4.76,4.76,0,0,1,1,2.43A7.32,7.32,0,0,1,179.14,301.84Zm6.44-4.76c-.83-.88-1.54-1.85-2.31-2.79s-1.36-1.62-2-2.43c-.29-.34-.6-.65-.89-1a12.39,12.39,0,0,0-1-1.16c-.39-.34-.72-.73-1.07-1.1-.63-.66-1.29-1.29-1.92-2-.25-.26-.46-.57-.7-.86s-.35-.4-.49-.57a.82.82,0,0,0-.67.25,10.39,10.39,0,0,0-1.47,1.66,17.92,17.92,0,0,1-1.35,1.75c-.72.81-1.51,1.56-2.25,2.35-.49.52-.92,1.1-1.44,1.59-1.18,1.1-2.08,2.43-3.18,3.59a.79.79,0,0,0-.11.88c.33.92.72,1.81,1,2.73a.48.48,0,0,0,.82.22,6.74,6.74,0,0,0,1.26-1.43c.38-.6.8-1.17,1.22-1.74.21-.28.5-.49.69-.77a10.92,10.92,0,0,1,1.76-1.89c.83-.78,1.66-1.54,2.41-2.4a3.48,3.48,0,0,1,.93-.9,1.23,1.23,0,0,1,.87.42c.57.58,1.16,1.15,1.73,1.72a4.91,4.91,0,0,1,.5.55c.83,1.13,1.65,2.27,2.48,3.41.51.7,1,1.39,1.54,2.08a1.58,1.58,0,0,0,.21.21,1.8,1.8,0,0,1,.54.78,2.69,2.69,0,0,0,.2.4.58.58,0,0,0,.54.32,7.07,7.07,0,0,0,1.55-.4c.18,0,.32-.29.49-.42a3.37,3.37,0,0,0,1.1-1.83A12,12,0,0,0,185.58,297.09Z"/></g>

	<g id="Residential"><text class="cls-10" transform="translate(209.64 262.03)">R<tspan class="cls-6" x="8.45" y="0">esidential</tspan></text><path class="cls-7" d="M181.47,251.91c0-.07.1-.11.11-.16.11-.51.22-1,.32-1.53.2-1.06.24-2.15.5-3.21a3.88,3.88,0,0,0,.05-.66.78.78,0,0,1,.84-.31,3,3,0,0,1,1.09.31.62.62,0,0,0,.16.08,13.15,13.15,0,0,0,3.29.71,1.25,1.25,0,0,1,1,.53.45.45,0,0,1,.08.28.51.51,0,0,1-.07.29,6.73,6.73,0,0,0-.89,2.48c-.16.67-.29,1.34-.43,2a10.7,10.7,0,0,0-.25,2.69c0,.5,0,1,0,1.52.6.46,1.21.91,1.8,1.38a15.44,15.44,0,0,1,1.65,1.53c0,.27-.21.32-.35.5a5.74,5.74,0,0,0-1.7-.2,30,30,0,0,1-3.23-.35,1.18,1.18,0,0,0-.8.06,2.15,2.15,0,0,0-.08.31c0,.3-.06.6-.08.89a1.41,1.41,0,0,0,0,.23,1.34,1.34,0,0,1,0,.42,10.15,10.15,0,0,0-.09,2.09c0,1,0,2,0,3,0,1.28,0,2.57.07,3.85a15.74,15.74,0,0,1,0,1.74c0,.22,0,.44,0,.66a.38.38,0,0,1-.47.4,9,9,0,0,0-2.27-.07c-.42.06-.83,0-1.26,0s-1.12.13-1.68.18c-.38,0-.76,0-1.14.06a5.57,5.57,0,0,0-.66.09.8.8,0,0,1-.56-.07,2.49,2.49,0,0,1-.09-.45,14,14,0,0,1,0-1.92,1.39,1.39,0,0,0,0-.18q0-2-.05-4a.48.48,0,0,0-.05-.13,1.18,1.18,0,0,0-.68-.12,4.77,4.77,0,0,1-1.32-.08,1.89,1.89,0,0,0-.83,0,4.77,4.77,0,0,1-1.08,0h-.12c-.62,0-.86.11-.88.84,0,1.34-.11,2.69-.13,4,0,.42-.06.84-.1,1.26,0,.19-.13.31-.32.28a16.89,16.89,0,0,1-3-.28,2,2,0,0,0-.78,0c-.74,0-1.48,0-2.22,0a1.21,1.21,0,0,0-.3,0,2,2,0,0,1-1.36-.26.82.82,0,0,1-.06-.27,12.24,12.24,0,0,0,0-1.8c0-.26,0-.52,0-.78a3.15,3.15,0,0,0,0-.9.59.59,0,0,1,0-.24,6.86,6.86,0,0,0,.05-1c0-.76,0-1.52.09-2.27,0-.48,0-1,.06-1.43a3.09,3.09,0,0,0,.06-1.07,2.25,2.25,0,0,1,0-.54c.06-.72.12-1.44.18-2.15a4,4,0,0,0,0-.42c0-.66,0-1.32-.06-2,0-.22,0-.43-.06-.66a3.53,3.53,0,0,0-1-.16,2.56,2.56,0,0,1-1-.1c-.33-.15-.68.14-1-.09-.12-.22,0-.39.11-.56a7.37,7.37,0,0,0,.66-1.85,10.66,10.66,0,0,1,.34-1.09c.19-.57.38-1.14.57-1.71s.43-1.3.61-2c.38-1.38.91-2.7,1.39-4,.25-.72.47-1.45.7-2.18a1.8,1.8,0,0,1,0-.18,22.7,22.7,0,0,0,.83-3,2.11,2.11,0,0,0,.1-.47.76.76,0,0,1,.26-.58,1.41,1.41,0,0,0,.23-.46c.2-.05.31.08.43.18a8.52,8.52,0,0,0,1.33,1,.26.26,0,0,1,.1.07,7.79,7.79,0,0,0,1.18,1.07c.62.6,1.33,1.09,2,1.66s1.28,1.19,1.94,1.76a8.1,8.1,0,0,1,1.46,1.34,3.5,3.5,0,0,0,.5.41c.32.3.63.61,1,.92.52.5,1.08,1,1.57,1.49a9.52,9.52,0,0,0,1.25,1.2c.56.43,1.06.93,1.57,1.4.25.23.5.47.75.69A.63.63,0,0,0,181.47,251.91Zm-11.76,2.77a2.07,2.07,0,0,0,0-.37q-.14-1-.29-2c0-.16-.14-.23-.37-.23H167.7a1.18,1.18,0,0,0-.21,0c-.13.18,0,.33,0,.49a1.72,1.72,0,0,0,.67,1.29A4.07,4.07,0,0,0,169.72,254.68Zm1-6.27a5.47,5.47,0,0,0,.09,2.28.64.64,0,0,0,.16.06l1.67.19a.7.7,0,0,0,.25-.08,3.54,3.54,0,0,0-1-1.94l-.34.06C171.36,248.56,171.36,248.56,170.76,248.41Zm2.32,4.11a4.64,4.64,0,0,0-2.09-.15,2.86,2.86,0,0,0,.17,1.17c.11.37,0,.8.29,1.13a2.48,2.48,0,0,0,1.42-1.15A1.28,1.28,0,0,0,173.08,252.52Zm-4.2,8.74a2.71,2.71,0,0,0,1.17.08.27.27,0,0,0,.25-.29c0-.46,0-.92,0-1.38a.46.46,0,0,0-.41-.45,3.49,3.49,0,0,0-1.15,0c0,.62.12,1.21.1,1.81A1.39,1.39,0,0,0,168.88,261.26Zm-1.71-2.18a2.12,2.12,0,0,0-1.09,0,.38.38,0,0,0-.3.39c0,.47,0,1,0,1.43a2.29,2.29,0,0,0,1.54.3,1.2,1.2,0,0,0,.06-.35A9.19,9.19,0,0,0,167.17,259.08Zm10.41,1.71a6.94,6.94,0,0,0,0,1.68,7.28,7.28,0,0,0,1.63.19,5.22,5.22,0,0,0,.06-1.44c0-.26-.11-.34-.39-.36S178.06,260.82,177.59,260.8Zm-11.86,1.54a4.07,4.07,0,0,0,.18,1.86,4,4,0,0,0,1.32,0c.06-.36.12-.69.16-1a3.23,3.23,0,0,0,0-.48.28.28,0,0,0-.24-.3A4.14,4.14,0,0,0,165.73,262.33Zm4.5.41s-.06-.06-.1-.07c-.36,0-.71-.07-1.07-.09a.23.23,0,0,0-.24.22c0,.4-.07.8-.08,1.2a1.57,1.57,0,0,0,.08.36c.42-.09.84.2,1.23-.08,0-.27.1-.52.13-.78S170.21,263,170.23,262.74ZM169,248.65a2.58,2.58,0,0,0-1.39,2,6.25,6.25,0,0,0,1.51,0A5.48,5.48,0,0,0,169,248.65Zm10,16.41a1.51,1.51,0,0,0,.13-1c-.06,0-.1-.08-.13-.08-.4,0-.79-.07-1.19-.08a.26.26,0,0,0-.26.21,1.09,1.09,0,0,0,.05.76A2.91,2.91,0,0,0,179,265.06Zm1.89-3.93c0,.05-.07.09-.07.12,0,.3,0,.6,0,.9,0,.56.09.62.63.63a1.69,1.69,0,0,0,.3,0,3.77,3.77,0,0,0,0-1.45A1.62,1.62,0,0,0,180.87,261.13Zm0,2.87a2.62,2.62,0,0,0-.06,1.52l.55.05a.23.23,0,0,0,.25-.21,7.52,7.52,0,0,0,.09-1.25,3.19,3.19,0,0,0-.36-.1C181.24,264,181.1,264,180.9,264Zm-5.12,5.51a.49.49,0,0,0-.41-.38.81.81,0,0,0-.76.37.65.65,0,0,0,0,.68.5.5,0,0,0,.45.28A.7.7,0,0,0,175.78,269.51Z"/></g>
</svg>