<svg id="NA" xmlns="http://www.w3.org/2000/svg" viewBox="0 0 1600 900"><defs><style>.cls-1{fill:#fff;}</style></defs><title>outline</title><path class="cls-1" d="M1314.22,97.91c-2.76-1.09-7.24-1-10.29-1.53q-3.89-.64-7.77-1.37-8.52-1.6-17-3.56-17.39-4-34.46-9.29-7.94-2.44-15.8-5.12c-5.23-1.79-10.54-4.41-15.9-5.7-6-1.43-12.93,1-18.52,2.86-7.59,2.47-14.91,5.64-22.34,8.52-8.72,3.39-8.49-5.28-15.24-6.92-5.34-1.3-12.09,5.64-15.55,9-7,6.93-14.62,11.68-24.36,7-6.09-3-10.4-1-16,2.44-3.5,2.16-6.6,4.79-10.89,5s-9.33-1.6-13.64-2.61c-7.08-1.66-14.51-3.77-21.83-3.91-10.09-.19-19.75,4.52-29,7.93-22.9,8.43-48.08,9.76-72.27,8.85-12.39-.47-25.41-.69-37.65-2.79-10-1.71-19.38-6.54-28.37-10.95-8.52-4.18-16.62-8-23.84-14.29C857.69,76.45,852,71,844.42,68.88c-16-4.39-28.29,6-36,19-11.11,18.85-15,39.49-18.79,60.75-3.57,20.12-9.41,39.38-22.21,55.72-6.4,8.16-14.26,14.93-24.34,18-11.65,3.51-24,2.5-36,1.77-9.9-.6-20.24-1.5-29.92,1.23-7.33,2.07-13.62,6.21-19.62,10.76-7,5.31-13.87,10.71-21.7,14.79-8.47,4.4-17.2,6.76-22.65,15.19-4.1,6.34-8.7,14.11-9.63,21.75-.6,5,.29,10.25.56,15.22q.54,9.7,1.08,19.4c2.84,50.2,6,100.4,9.83,150.53,7.56,97.71,18.19,195.2,34.56,291.85q6.26,36.95,13.6,73.7a.25.25,0,0,0,0,.16c10,13.87,24.09,14.21,39.87,14.36,25.49.24,50.85,0,76.34-.51,26.21-.49,52.4,1.13,78.62,1.37,26.78.24,53.57-.14,80.35-.69,52.58-1.09,105.12-2.34,157.72-2.24,51.76.1,103.51.86,155.27,1.14,60.15.32,120.15-2.08,180.16-6a.3.3,0,0,0,.28-.22q3.5-15.1,7.07-30.18c2.51-10.7,3.53-25.42,11.42-33.72,7.6-8,21.16-9.36,31.39-11.71,7.52-1.73,15-3.58,22.07-6.67,15.76-6.85,28-17.25,34.73-33.35,6.21-14.91,6.07-30.93-4.44-43.77-6-7.32-14-11.74-22.17-16.18-7.59-4.12-15.27-8.11-23.18-11.58a245.58,245.58,0,0,0-24-8.89c-4.53-1.45-12.77-2.27-15.2-6.61a30,30,0,0,1-3.36-14.74c.54-7.34,7.31-10.15,12.79-13.6,5.26-3.31,10.44-6.75,15.39-10.5,6.39-4.85,12-10.23,13.7-18.38,4.45-20.93-22.88-21.75-36.73-24.61l-38.12-7.88c-2.32-.48-7.23-.66-8.86-2.47-2.27-2.52,1-6.88,3-9,3.87-3.93,9.38-6.07,14.69-7.13,8.4-1.69,18-1.6,24.94-7.34,5.59-4.63,7.36-11.7,6.55-18.7-1.07-9.3-5.75-17.73-10.74-25.45-6.18-9.54-12.27-19.14-18.09-28.91-11.84-19.85-22.61-40.37-31.17-61.85-9.29-23.32-15.72-47-17.37-72.1-1.56-23.75-.29-47.62-2.5-71.33-1.65-17.74-5.65-35.38-15-50.75-4.46-7.34-10-14.88-16.78-20.19-6.21-4.84-17.11-9.8-19.12-18.12-2.08-8.61,5.17-16.26,8.38-23.6,1.77-4,3.43-10.6-.36-14.08-2.5-2.3-7.26-2.81-10.2-4.31-6.37-3.24-6.18-7.17-4.73-13.22C1316.68,101.79,1317.58,99.24,1314.22,97.91Z"/></svg>